/* XPM */
static char *_db740387de64e5fca662c3975cba059dT8ORZwohsg0SHmv[] = {
/* columns rows colors chars-per-pixel */
"64 64 10 1 ",
"  c gray44",
". c #7C7C7C",
"X c #00FFE5",
"o c gray51",
"O c gray55",
"+ c #9B9B9B",
"@ c gray67",
"# c #AFAFAF",
"$ c #91FFF5",
"% c white",
/* pixels */
"++++................OOOO####@@@@    ####++++++++++++++++++++++++",
"++++................OOOO####@@@@    ####++++++++++++++++++++++++",
"++++................OOOO####@@@@    ####++++++++++++++++++++++++",
"++++................OOOO####@@@@    ####++++++++++++++++++++++++",
"++++++++################++++++++++++############....++++++++++++",
"++++++++################++++++++++++############....++++++++++++",
"++++++++################++++++++++++############....++++++++++++",
"++++++++################++++++++++++############....++++++++++++",
"++++....++++++++$$$$++++++++++++####....++++++++$$$$$$$$++++++++",
"++++....++++++++$$$$++++++++++++####....++++++++$$$$$$$$++++++++",
"++++....++++++++$$$$++++++++++++####....++++++++$$$$$$$$++++++++",
"++++....++++++++$$$$++++++++++++####....++++++++$$$$$$$$++++++++",
"++++####++++++++++++....++++$$$$XXXX++++........oooo........++++",
"++++####++++++++++++....++++$$$$XXXX++++........oooo........++++",
"++++####++++++++++++....++++$$$$XXXX++++........oooo........++++",
"++++####++++++++++++....++++$$$$XXXX++++........oooo........++++",
"++++########............................####################....",
"++++########............................####################....",
"++++########............................####################....",
"++++########............................####################....",
"........++++++++++++%%%%$$$$++++++++....%%%%$$$$++++++++....++++",
"........++++++++++++%%%%$$$$++++++++....%%%%$$$$++++++++....++++",
"........++++++++++++%%%%$$$$++++++++....%%%%$$$$++++++++....++++",
"........++++++++++++%%%%$$$$++++++++....%%%%$$$$++++++++....++++",
"########++++%%%%$$$$XXXXXXXXXXXX####++++XXXX%%%%############....",
"########++++%%%%$$$$XXXXXXXXXXXX####++++XXXX%%%%############....",
"########++++%%%%$$$$XXXXXXXXXXXX####++++XXXX%%%%############....",
"########++++%%%%$$$$XXXXXXXXXXXX####++++XXXX%%%%############....",
"++++++++++++++++++++++++++++++++++++....++++++++++++++++++++++++",
"++++++++++++++++++++++++++++++++++++....++++++++++++++++++++++++",
"++++++++++++++++++++++++++++++++++++....++++++++++++++++++++++++",
"++++++++++++++++++++++++++++++++++++....++++++++++++++++++++++++",
"++++%%%%$$$$....####++++++++++++%%%%$$$$########################",
"++++%%%%$$$$....####++++++++++++%%%%$$$$########################",
"++++%%%%$$$$....####++++++++++++%%%%$$$$########################",
"++++%%%%$$$$....####++++++++++++%%%%$$$$########################",
"++++++++++++++++++++++++++++$$$$XXXXXXXXXXXX++++++++++++####++++",
"++++++++++++++++++++++++++++$$$$XXXXXXXXXXXX++++++++++++####++++",
"++++++++++++++++++++++++++++$$$$XXXXXXXXXXXX++++++++++++####++++",
"++++++++++++++++++++++++++++$$$$XXXXXXXXXXXX++++++++++++####++++",
"++++++++####++++XXXX########++++....++++############++++++++++++",
"++++++++####++++XXXX########++++....++++############++++++++++++",
"++++++++####++++XXXX########++++....++++############++++++++++++",
"++++++++####++++XXXX########++++....++++############++++++++++++",
"....++++++++++++++++++++++++++++########++++$$$$XXXX########....",
"....++++++++++++++++++++++++++++########++++$$$$XXXX########....",
"....++++++++++++++++++++++++++++########++++$$$$XXXX########....",
"....++++++++++++++++++++++++++++########++++$$$$XXXX########....",
"++++............................$$$$%%%%$$$$XXXXXXXXXXXX....++++",
"++++............................$$$$%%%%$$$$XXXXXXXXXXXX....++++",
"++++............................$$$$%%%%$$$$XXXXXXXXXXXX....++++",
"++++............................$$$$%%%%$$$$XXXXXXXXXXXX....++++",
"++++########%%%%$$$$########++++++++XXXXXXXX++++++++++++########",
"++++########%%%%$$$$########++++++++XXXXXXXX++++++++++++########",
"++++########%%%%$$$$########++++++++XXXXXXXX++++++++++++########",
"++++########%%%%$$$$########++++++++XXXXXXXX++++++++++++########",
"++++++++++++++++++++++++++++++++++++++++########++++++++++++++++",
"++++++++++++++++++++++++++++++++++++++++########++++++++++++++++",
"++++++++++++++++++++++++++++++++++++++++########++++++++++++++++",
"++++++++++++++++++++++++++++++++++++++++########++++++++++++++++",
"++++++++++++++++++++++++########++++++++++++++++++++++++++++++++",
"++++++++++++++++++++++++########++++++++++++++++++++++++++++++++",
"++++++++++++++++++++++++########++++++++++++++++++++++++++++++++",
"++++++++++++++++++++++++########++++++++++++++++++++++++++++++++"
};
