/* XPM */
static char *_b9d3fa30e38441df015ae34a0164da0QvzmQ4ponbrpXH2V[] = {
/* columns rows colors chars-per-pixel */
"64 64 153 2 ",
"   c #564E4D",
".  c #584E4E",
"X  c #55514D",
"o  c #59544E",
"O  c #565352",
"+  c #5A5452",
"@  c #5E5856",
"#  c #5E5A5A",
"$  c #615653",
"%  c #625A55",
"&  c #635C5A",
"*  c #685958",
"=  c #676056",
"-  c #65605B",
";  c #6B635E",
":  c #72615E",
">  c #645F60",
",  c #666161",
"<  c #6D6465",
"1  c #6D6865",
"2  c #64656A",
"3  c #6D6669",
"4  c #6E6B6B",
"5  c #726564",
"6  c #746964",
"7  c #796B66",
"8  c #726768",
"9  c #726B6B",
"0  c #796D6C",
"q  c #75716E",
"w  c #7C716C",
"e  c #756E72",
"r  c #796E75",
"t  c #796F78",
"y  c #747373",
"u  c #7C7372",
"i  c #7D7876",
"p  c #7C777B",
"a  c #777C7C",
"s  c #7D7B7C",
"d  c #83746E",
"f  c #88716F",
"g  c #82786F",
"h  c #827574",
"j  c #8C7675",
"k  c #827975",
"l  c #8A7974",
"z  c #867778",
"x  c #847B7B",
"c  c #8A7E7E",
"v  c #81807E",
"b  c #8B817D",
"n  c #91877F",
"m  c #9F887F",
"M  c #A7877E",
"N  c #A6887C",
"B  c #AA887E",
"V  c #7D7D81",
"C  c #847F81",
"Z  c #8B7D82",
"A  c #8C7C88",
"S  c #927F84",
"D  c #907F88",
"F  c #848182",
"G  c #8C8383",
"H  c #8F8986",
"J  c #868589",
"K  c #8D8389",
"L  c #84888A",
"P  c #8C8A8B",
"I  c #928484",
"U  c #9A8584",
"Y  c #928985",
"T  c #9B8B83",
"R  c #958788",
"E  c #948B8A",
"W  c #9B8E8D",
"Q  c #96908E",
"!  c #9A928D",
"~  c #9B918E",
"^  c #9A928F",
"/  c #9C928C",
"(  c #9C918E",
")  c #8E8F91",
"_  c #938C90",
"`  c #928D93",
"'  c #948E91",
"]  c #968D92",
"[  c #938D94",
"{  c #918F96",
"}  c #998E92",
"|  c #918F99",
" . c #8F9092",
".. c #939091",
"X. c #949091",
"o. c #949293",
"O. c #919195",
"+. c #9B9293",
"@. c #9C9293",
"#. c #9A9196",
"$. c #9A9397",
"%. c #9D9196",
"&. c #9B9494",
"*. c #999596",
"=. c #9E9996",
"-. c #92919B",
";. c #939498",
":. c #99979A",
">. c #9D9798",
",. c #9C9A9A",
"<. c #A28580",
"1. c #A28A82",
"2. c #A1918E",
"3. c #A19695",
"4. c #AA9795",
"5. c #A29A96",
"6. c #A89995",
"7. c #A49C9B",
"8. c #A19B9C",
"9. c #A19C9E",
"0. c #A99B9A",
"q. c #A6A19D",
"w. c #ABA29C",
"e. c #A29CA1",
"r. c #A39EA0",
"t. c #AE9FA5",
"y. c #A5A0A2",
"u. c #A5A1A2",
"i. c #A6A1A3",
"p. c #ABA5A5",
"a. c #ADA8A6",
"s. c #ADA5A9",
"d. c #ACA6A9",
"f. c #ADABAB",
"g. c #AEAAAB",
"h. c #AFAAAB",
"j. c #AEADAD",
"k. c #AFAEAE",
"l. c #B2A9A7",
"z. c #B1A6AB",
"x. c #B0ACAC",
"c. c #B2ADAC",
"v. c #B1ACAF",
"b. c #B1AFAF",
"n. c #B4B0AF",
"m. c #AEADB1",
"M. c #B1AFB0",
"N. c #B3AFB0",
"B. c #B0AFB3",
"V. c #B6AEB0",
"C. c #B1B1B1",
"Z. c #B2B2B2",
"A. c #B4B1B1",
/* pixels */
"% @ % = m.m.Z.m.3 3 3 3 I m c U X.O.O.{ D A A Z S S <.D < < 3 < a a a a 5 < < 8 { R R R E R R K G x v b / ! / E e e e t K I I K ",
"% $ o @ Z.m.m.m.< 3 < 5 I c M c O.O.O.{ I A A S S U U S 2 < 3 3 a V a a < < < 8 R R ] R E K E R Z c C b / ! / W r e r r Y I K I ",
"% % = % V.N.V.x.3 3 2 < S <.S S | -.-. .A Z A S S D D R < < < 3 s s s i < 3 3 3 R R Y Y R R P K b v C G ! ! / ! e e e y n I Y I ",
"% = % % Z.N.V.x.< < < < c S c U ..` O.W I Z Z n U R U D < < 3 3 s s F s < < < 4 E R ` E E E E R c x c v ! ! ! E e 0 9 u I I I K ",
"l f l l Y Y U U h.h.h.s.7 5 < 5 Z C C Z %.$.*.%.} ] ] W < < < 8 i.8.e.e.,.,.e.>.6 6 6 9 H H H H + + + & ~ ~ / E u r r h I U Y R ",
"j l l j S S c S N.N.N.x.: 5 5 > Z Z Z c $.*.+.%.{ { ` ) < < < 9 i.i.i.i.u.i.i.8.5 6 < 7 H H H b + + O & Q ~ / E f r f r Y R I H ",
"j j l j S m c U N.m.B.m.< > < < Z Z c Z +.+.%.:.] ` { ` < < < 8 i.i.i.i.e.i.i.8.6 ; 1 6 H H H G + + o & ! ! ! E r r h h R R R Y ",
"j j l j c S S S N.N.V.m.> < < < Z x Z C +.$.+.*.{ { | { & < < 8 i.e.e.i.i.i.e.8.< 6 6 q H P Y b O + O % ! ! ! ! f h r h H I I Y ",
"f h h f 0 0 r 0 4 4 4 < 5 6 6 9 0.8.0.0.Z Z G Z s.s.s.s.x p z p 6 4 9 < @ @ @ # 9 4 9 y n.x.x.n.n.a.a.p.g g k g < < < < 8 8 3 < ",
"f f f f 8 0 8 9 < < < < 5 6 6 5 7.0.0.3.Z Z F Z s.z.s.s.z x c x < < < < + + + + 4 4 4 y A.V.n.A.n.n.n.a.g g g w < < < 8 < 8 < < ",
"f f h f e 8 0 9 < < < & 6 6 1 6 0.0.0.5.F F F K z.z.z.s.x x x p < < < < + + + + 4 4 4 y n.n.V.A.n.n.n.a.g g g g < < < < < < < < ",
"f f f h 0 8 9 9 < < < < ; 6 : : 7.0.0.5.F Z K Z z.z.s.s.x x x x < < < < + O O + 4 4 4 y n.n.n.x.n.n.n.l.g g k w < < < < < < < < ",
"c c c Z s s p V s.h.s.s.,.5.3.,.7 6 7 6 G I U c C x x x < 3 5 8 J J J L K K L G P P E Y u u u u w w u u 7 q 7 w 5.5.5.5.W W W E ",
"C C C x s a a V A.N.N.m.q.e.e.8.6 6 5 6 c I I I p p p p < < < 3 J J L J P L K L W Q E Y 0 0 0 0 q 0 0 0 0 9 0 u 5.q.5.5.~ W Q Q ",
"x F C F a a a a k.m.v.v.e.e.e.8.6 : : 7 c U I b p x p z < < < 4 L L L L P P P  .E E E Y 0 0 0 0 0 0 0 0 0 0 w w 5.q.5.5.E / Q ( ",
"F C c F V s s a k.N.N.z.e.0.e.8.5 5 5 5 b b n I p p p p < < < 3 L J J J P L P P E W E Y 0 0 9 0 0 0 0 0 0 0 0 g 6.5.q.5./ ! ~ Q ",
"< < 5 8 W ` ..Q T W T T + @ @ @ R R P Y & & > > y p y y 8 5 < 8  . . .P q q q y ; ; - 6 &.>.5.&.Y Y Y Y G G K G ,.=.=.=.H n H H ",
"< < > < +.W ~ W 1.<.T m O O O + P E E Y @ # & & t u y y < < < 3  . . .) w w q 7 - - = 1 5.5.5.5.Y Y T Y G G G H =.=.=.=.H n Y H ",
"- , < > W W W } m m M U   O o + P E P K # # & # u y y y 3 < < 8  . . .) w w 7 7 = = = ; 5.8.5.*.Y Y E E G G K Y ,.,.,.:.H n n H ",
"< < < < Q ~ ~ ~ 1.1.T U   O o O E P E P & # # > i y p y < < < 3  . . .Y q q q q = = = < 5.5.5.3.E ! T Y G F G Y ,.,.,.,.H n H n ",
"R R E E d.s.p.t.h h f u E ] ] E V p t V :.%.e.:.x x h h X     o 1 1 1 1 6 6 6 6 l z z c z.z.z.z.x.c.x.w.- & - ; q q q 1 o o + X ",
"E R ] ] d.s.z.t.r r r t } :.} %.p t V V e.e.e.e.z l z h X     O 1 1 < < 6 5 6 7 c x x C z.z.z.z.n.V.A.a.& * & * 1 6 q 1 o X X X ",
"E R R ] s.z.z.t.r r e e } +.+.%.V V V V e.e.e.e.z z z h   X   O < < < < 6 6 5 9 x Z z Z x.z.z.z.n.A.A.h.- * & - 1 q 1 1 X X X X ",
"R ] ] E z.z.s.z.e e r t %.%.%.+.t V p V e.e.e.e.z z z h X X   o 3 < < < 6 6 5 8 z z x Z m.z.z.z.A.A.A.l.& & & - q 1 1 1 X X X X ",
"+.%.$.%.2.2.2.W p p p x H I H I > 2 3 3 @.@.} @.x x C C 3.3.3.3.P H H H q w 0 q k c k k + + + # V F F F G Z K Z v v F v < < < < ",
":.%.*.+./ / / / s p s s G Y G G > 3 3 8 @.W @.W V s V F 7.0.e.8.E E P Q q q q q c x b k X X O + V V V V K K K J J J J F < < < < ",
"&.&.*.*./ 2.2.( s s p s I G I G < < > 8 @.@.@.} a v s F 7.e.7.8.E E P H q q q w c c v k X X   O V V V V K K A J F J J F < < < < ",
">.>.&.>.2.W 2.( s V s s G I G G < < < 8 } @.} } V F s x 7.7.7.=.P Q Y E q q q y x x b i     X O V V V V K K J J J G F v < < < < ",
"< < 3 3 < 5 5 8 s.s.h.p.< 3 3 9 8.>.=.=.1 3 9 9 E H H H @ + @ @ 8 < 9 9 Y Y T R G b J b < < < 3 F x V s y 4 y y V V V V y y y y ",
"< < < < < < < < l.l.l.a.< < < 9 7.7.u.5.< < < < E E Y H o O o O < < < 5 1.U 1.U b b b b < < < 8 V F Z x 4 e e 4 V V V V y y e y ",
"< < < < < < < < x.l.l.l.< < < < q.8.q.5.< < < 3 Y Y Q n O O o + < < < 9 b N T n b G b x < < < 3 x x z p 4 4 4 y V V V V y y e e ",
"< < < < < < 3 3 l.l.l.l.< < < 5 8.q.5.,.< < < 5 Y Y Y H o O O O < < < 5 T T U T G b G c < < < 3 x x x x e 4 4 2 V V V s y y y y ",
"4 4 4 4 # , & # @ @ @ @ < < < < + + + @ c c c c 5./ 5.! v a v a { ` O.) , ; : < < 3 < 8 A Z A K 7.q.q.( < < < 8 P E P J 2 2 2 1 ",
"9 4 y 4 # # # # X + + + < < < < X X   + c G b Z 5.5.5.=.v v v v ;.*.;. .; ; ; ; < < < 8 G A A I q.q.q.=.< < < 8 Y Y Y G 2 2 2 2 ",
"4 4 4 4 # # # # + + + + < < < < X O X + I c b G 5.5.=.! v v v v ) ;.;. .; ; ; ; < < < 8 S S D U q.q.q.5.< < < 9 Y E Y G 2 2 2 2 ",
"y 9 4 2 2 # # # . + O O < < < < X X   o G c Z G 5./ =.! v v v v ;.;.;. .; ; 1 ; < < < < S S S I q.q.q.=.< < < 9 E P R K 2 2 2 2 ",
"K K K G 2 < < < *.:.*.*.*.*.;.*.i k k i 4 < < 9 n.n.n.n.Z.Z.f.p.O O O @ a k k v h.h.h.s.5 0 7 0 x k z x I I Y A e y y 4 O O O O ",
"G H G K < < < < ,.,.,.,.,.;.:.:.k v x k < < < 6 n.n.n.n.Z.Z.Z.p.O X X O i k k v N.N.A.p.5 : : 5 z h p z R R R K 4 e 4 4 X O O O ",
"G G K G < < 3 1 ,.,.,.,.:.,.:.:.x k k v < < 1 6 Z.Z.Z.Z.Z.Z.A.p.O X X o k x k F N.m.N.s.5 5 5 5 p h h z E R R I 4 y 2 4 O X X X ",
"G K K K < < < 4 ,.,.,.,.:.:.:.:.v v x k < < < 9 Z.Z.n.n.Z.Z.A.f.O X X o x k c v m.N.N.p.: f 7 6 h h z z E R R U e 4 e 2 X X X X ",
"5 8 8 8 &.e.e.%.7 q 6 6 @ O O # T 1.( T $ $ $ $ 1 1 1 1 q q q a b b J b q q q q 1 4 9 9 c Z b G x c c v u k g v m.m.k.e., - ; - ",
"5 5 3 8 t.e.t.e.6 6 6 6 X O X O 1.1.1.T $ $ + $ 1 1 1 1 q q q q H G H G q q q q 2 < < 9 I G I G x x x k g w g l m.m.A.a., < - < ",
"5 8 : : u.i.e.e.6 : : 6 X X X o 1.1.1.1.$ o $ $ 1 = 1 - q q q a G I G b q q q q < < < 1 G I G G x x x k w u u v m.m.n.u.< * < - ",
"5 5 3 3 u.r.e.e.6 6 6 5 X O O o T 1.1.T $ $ $ $ 1 - 1 1 q q q q I G I H q q q q < < < 9 I G I I x x v k i u w x m.N.m.u.< 5 & < ",
"< 8 5 < 9 8 9 9 5.5.5.5.; ; ; ; 7 7 7 w b J H n y y y q > > # > +.+.+.E + @ + - ,.5.,.o.@ @ @ % < < < < < < < 9 x k k v n n b b ",
"< 8 > 8 < < < 5 w.5.7.8.; ; ; ; 6 6 : : P H H J y y a q # # # > +.+.+.Q O o o # 8.e.e.=.o o o o < - ; ; < < < 1 s i a i n n Y I ",
"< < < < < < < < 6.q.q.q.; : ; ; 6 1 ; q P P P L a y y y # # # - +.+.+.E + o + % e.8.8.,.@ + + @ 6 ; ; ; < < < 1 i i i a n n n Y ",
"5 < < < < < < < 5.q.5.w.; ; ; ; 6 6 6 q P P P P y y y y # # # & +.+.+.W + + + # e.y.e.;.o o o @ ; ; ; ; 3 < 3 < s i i i n n I n ",
"0.7.7.0.W W E W H Y Y Y & & % & 5.5.7.5.c x C C +.&.&.:.p x p p 3 9 4 9 Q o.o.Q b v v G ,.*.:.*.( ! ! H # # @ - p k i k b b b b ",
"t.w.w.w.~ ~ W ~ H H Y G & # % & i.q.p.7.x x x x 3.>.5.+.x x x x < < < 6 =.*.*.X.x x x v ,.=.=.=.~ / ! E # @ @ # k l l k b b b b ",
"w.w.w.w.W W W ! H G Y G * @ & > q.e.q.q.x x C c 3.3.3.>.C x C x < < 1 1 ;.;.;.*.x x v v ,.=.,.,.o.! o.E # @ # & h k k l b b b b ",
"w.w.w.w.! W ! ! Y H Y K # @ @ > u.e.q.q.x x x x >.>.3.%.z x x x < < 1 1 ;.=.*.*.x c v v =.=.=.&.! ! ! E @ @ # & k k k l b b b l ",
"7 7 w w Y Y E / a.p.d.p.C t z z ! =.=.o.< 3 < 9 ] ......,.e.,.,.G G F x 4 < 4 9 Q Q Q Q G P G F ; ; - 1 3.2.3.4.p.q.w.=.= * * * ",
"6 6 : 6 E ~ T E k.p.h.p.C z V C =.=.! ~ < < < 9 ........e.e.e.e.G J G G < < < 8 ..~ ..Q G G G F - # # 1 6.6.4.0.p.a.a.q.$ $ * % ",
"6 6 : 6 E E E E p.d.d.p.C p z C =.! =.+.< < < <  . . . .,.e.8.,.G G G F < < < 9 Q Q Q Q G G G c - = # ; 6.4.4.6.p.p.p.5.$ $ $ % ",
"5 5 7 7 ! E / E a.d.s.s.x z C z =.~ =.+.< < < 4 ....Q  .e.e.8.e.F J G G < < < 9 Q Q ~ Q G G K c # - - < 6.4.4.6.w.a.w.6.* * * $ ",
"m Y Y Y u h u h 9 e 3 r F z x x 8 8 8 8 ` ] Q P i k i i # # # - k.f.f.d.,.,.e.,.n c c I 2.W ( W h u u d 5 : 5 5 i w w w w w h i ",
"E E T W w u w u 3 1 3 e x z c x < < < 3 ....o. .i i i i + + + # k.k.m.h.u.u.i.e.c c c n ~ 2.( W k k l h : : : : d w d 7 h u i h ",
"T E T W h 0 w u 3 3 4 3 c k z z < < < 3 ..o. . .v w i i + o o & k.k.h.k.u.i.i.e.n c c c ( ( / / k l h h : : : : 7 d 7 d u h i h ",
"T E T E w u u w 3 3 4 2 k c x x < < < < ..o.o.Q g g k u + + + # k.k.k.h.u.i.u.e.c c c n ( 2./ ( x h h j : : : : w w d 7 h i h u ",
"o % $ % b I G G . . . + W W W W H Y H H 3 3 3 3 # @ @ & b b G b # & # & 5.4.5.&.o o o $ T T T W 0.0.0.} < < 5 8 1.N 1.T W Q X.X.",
"o o o o H G H G . . . . ~ W } W Y Y Y P < < < < @ # @ # Y Y Y b o + + @ 4.4.4.2.X X . + T T T T 5.8.5.3.< < < 7 B B B 1.....X.*.",
"o o o o G H G G . .   . ( } W W E P E K < < < < @ @ @ # I b Y G o + + % 4.4.4.2.X X o + T T T T 0.7.0.3.3 < < 9 N N N N *.o.o.&.",
"o o o o H G G c   .   . W W ~ } Y E Y H < < < < @ @ @ % G Y G b o o o % 4.4.4.2.X X X @ m I T T r.0.0.3.< < < 5 M M B 1.o.o.*.=."
};
