/* XPM */
static char *_ab4d3822bbb465aadfc0bdbc1aaf2fesLMXGQ2Ju7JCgNEB[] = {
/* columns rows colors chars-per-pixel */
"64 64 61 1 ",
"  c #5A3D29",
". c #5A3E29",
"X c #79573B",
"o c #79573C",
"O c #7A573C",
"+ c #79583B",
"@ c #7A583B",
"# c #79583C",
"$ c #7A583C",
"% c #6C6C6C",
"& c #6D6C6C",
"* c #6D6D6C",
"= c #6D6D6D",
"- c #976C4A",
"; c #976C4B",
": c #976D4B",
"> c #966D4C",
", c #5F9740",
"< c #5F9840",
"1 c #5F9E42",
"2 c #609E42",
"3 c #609F42",
"4 c #60A143",
"5 c #61A243",
"6 c #62A243",
"7 c #63A443",
"8 c #64A543",
"9 c #65A543",
"0 c #67A744",
"q c #68A844",
"w c #69A844",
"e c #6AAA44",
"r c #6BAA44",
"t c #6BAB45",
"y c #6CAB45",
"u c #6CAC45",
"i c #6DAC45",
"p c #6FAE47",
"a c #6FAE48",
"s c #71B048",
"d c #71B049",
"f c #73B24A",
"g c #74B24A",
"h c #74B34A",
"j c #74B34B",
"k c #75B44B",
"l c #76B54C",
"z c #77B64D",
"x c #7FB150",
"c c #7FBB54",
"v c #BB865F",
"b c #BA875F",
"n c #BB875F",
"m c #81B452",
"M c #80BB55",
"N c #81BB55",
"B c #87BC59",
"V c #8BC05D",
"C c #91C362",
"Z c #91C462",
"A c #898A8A",
/* pixels */
"kkkkzzzzlffk00000000pppp4471yyyycccclzzzyqyrrqyqrrrr7777<<,,rpru",
"jkjkzzzlkfff00000000apap7444yyyycMcclzzlryrr9q9yrrqr7777,<,,pruu",
"kkkkzzzlffff000000qqaaap4444yyyycccczzzzrq9rr9yqrrrr7777<,,<iiru",
"jkjkzzzlfffk0000009qaaap4444yyyycccczzzzrrprqqq9rrrr7777,<<,iuuu",
"llllyyyyBBBBxxxxmmmm....eeqr99694664ZZZZZZZZfkff7777rtrrqqqqrruu",
"llllyyyyBBBBxxxxmmmm....q0qr99996446ZZZZZZZZfsks7777prsrqqqqprru",
"llllyyyyBBBBxxxxmmmm....qqqq99991644ZZZZZZZZksfk7777rpru9qqqyypr",
"llllyyyyBBBBxxxxmmmm....qqrq99936646ZZZZZZZZkffk7777rrrrrqqryyyr",
"VVVV..  ZZZZ0707eeyr  ..ssss....fjjjMMMMZZZZZZZZ... 11143974 ...",
"VVVV..  ZZZZ7007eeey  ..ssss....fjgjNNMMZZZZZZZZ... 31119417 ...",
"VVVV..  ZZZZ997700tt....ssss....jjgjNNNNZZZZZZZZ..  33113764....",
"VVVV..  ZCZZ9990tttt....sssf....ssjjMNNNZZZZZZZZ..  11149167....",
"....&&&&....    sfss.... .......3444  ..srpr....$$$$........$$$$",
"....**&&....    ssss.... .......4444  ..rutr....+$$$........$$$$",
"....****.....   ssfs..........  4444....uppp....$$$$........$$$$",
"....****........ssss........    4444....prrr....$$$$......  $$$$",
"::::++++>>;;vvnn  ..::;;$$$$$+++............****$$$$;:::  ..$$$$",
"::::++$+>>>>nnnn....::;;$$$$+$XX............****$$$$;;::  ..$$$$",
"::::$$$$>>>:nnnn....;;;;$$+$+OOX............****$$$$;;::....$$$$",
"::::$$$$>>>:nnnn....;:::$$+$OOOX............****$$$$;;;:....$$$$",
"$$$$....;-::::::$$$$::>:............$$$$$$$$....$$$$$$$$$$$$nnnn",
"$@$$....;;::::::$$$$>>>>............$$#$$$$$....$$$$$$$$$$$$nnnn",
"$@$$....::;:::::$$$$>>>>...... .....$$$$$$$$..  $$$$$$$$$$$$nnnn",
"$$$$....;;;;;:--$$$O>>>>......  ....$$$$$$$$..  $$$$$$+$$$$$nnnn",
"nnnn....$$$$$$$$AAAA$$$$$$$$nnnnbbnn$$$$nnnnnnnn$$$$::::$$$$::::",
"nnnn....$$$$$$$$AAAA$$$$$$+$nnnnbbnn$$$$nnnnnnnn$$$$;:;;$$$$::::",
"nnnn....$$$$$@$$AAAA+$$$$+$$nnnnbbbn$$$$nnnnnnnn$$$$;;::$$$$;;::",
"nnnn....$$$$+$$$AAAA$$+O$$$$nnnnbbnn$$$$nnnnnnnn$$$O::::$$$$:::;",
"nnnn@$$$nnnnnnnn:;;;;;;;++++$$$$;;;; ...;;;;;;:;$$$$$$$$;;;;:;;;",
"nnnn$$$$nnnnnnnn;::;;::;++++$$$$;;;: ...::::::::$$$$$$$$::::::::",
"nnnn$$$$nnnnnnnn:;;;;;;;++++$+$$;;::....;;;;;;:;$$$$$$$$;;;;;;;;",
"nnnn$$$$nnnnnnnn;;:;;;;;++++$$$$;;:>....::;:;;::$$$$$$$O:;;::;;;",
"::::$##+++++:;;;$$$$::::$+$$....O$$$>;;;::::XO$$$$$$$$$$  ..$$$$",
":::;###+++++;;;;$+++::::$$$$....$$$$;;:;:::;$$$$$$$$$$$$. ..$$$$",
"::;;#+++$O++;;;;++++::::$$$$.. .$$$$;;;:::;:$$$$$$$$$$$O....$$$$",
"::;:+#+XOO+X:;;:+O+X::::$$$$..  $$$$::::::::$$$$$$$$$$$X....$$$$",
":::::;:; ...+++++++$........++$$$$$$O$$$$$$$$$$$nnnnnnnn$$$$::::",
"::::;;:;  ..XOO++OXO........$$$$$$$$$$$$$$$$$$$$nnnnnnnn$$$$::::",
"::::;;::....++++++X+........$$$$$$$$$$$$$$$$$$$$nnnnnnnn$$$$::::",
"::::;;::....OOo+XXXX........$+$O++$$$$$$+$+$$$$$nnnnnnnn$$OX;;;:",
":::::;;;##++nnnnnnnn+$+$nnnn:::: ...nnnnnnnn$$$$::::::::AAAA$$$$",
":::::;::##++bbnnnnnn$$+$nnnn::;;  ..nnnnnnnn$$$$::;:::::AAAA$$$$",
":::::;;:#XX#nnnnnnnn$$$$nnnn;;;;....nnnnnnnn$$$$:;:;::::AAAA$$$$",
"::::::;;$$+$nnnnnnnn$+$$nnnn:;;;....nnnnnnnn$$$$;:::::::AAAA$$$$",
"::::O$#$$$$+::::::::nnnn$$$$:::;***=>>::;:::XO$$  ..::::$$$$ ...",
":::;++++XXX+;;:;;;::nnnn$$$$;;;;****>>;;::;;$O$$  ..::::$$$$  ..",
"::;;#o+#XXOO::::::::nnnn$$$$;:::****>:;::;::$$$$....:::-$$$$....",
"::;:OX##XOOX:::;::::nnnn$$$O::::****>:::;:::$$$$....:::-$$$$....",
"o+$$....::;:O$$$;::::;;;nnnn$$$$$$$$$$$$$$$$$$$$$$$$$$$$nnnnnnnn",
"+++#....::;:$$$$::;:::::nnnn$$$$$$$$$$$$$$$$$$$$$$$$$$$$nnnnnnnn",
"+X+#..  :;;:$$$$;:::;;;;nnnn$$$$$$$$$$$$$$$$$$$$$$$$$$$$nnnnnnnn",
"o++#..  ::;:$$$$;;::;::;nnnn$$$O$$$$$$$$$$$$$$$$$$$$$$$$nnnnnnnn",
"XXX#:;::$$$$$$$$....$$$$:::::;;:$$$$....nnnn....$$$$bbnn::::::::",
"XXX$;;;;$$$$$$$$....$$$$;:;:;::;$$$$....nnnn....$$$$nvnn::;:::::",
"+XX$;;::$$$$#$$$....$$+$:;;;;;;;$$$$....nnnn....$$$$nnnn;:;:::::",
"XX+$;:;;$$$$$$$$....$$$$::;::;;;$$$$....nnnn....$$$$nnnn::::::::",
"::::$$$$  ..nnnn$$$$....$$$$....$$$$$$$$$$$$$$$$$$$$$$$$::;;:;:;",
"::::$$$$. ..nnnn$$$$....$$$$....$$$$$$$$$$$$$$$$$$$$$$$$::::::::",
"::::$$$$....nnnn$$$$....$$$$....$$$$$$$$$$$$$$$$$$$$$$$$;::;:;:;",
"::::$$$$....nnnn$$$$....$$$+....$$$$$$$$$$$$$$$$$$$$$$$$::;::;;:",
"$+$$....nnnnnnnn$$$$$$$$nnnn....++$+nnnn$$$$....$$$$nnnn$$$$  ..",
"$+$$....nnnnnnnn$$$$$$$$nnnn....O$$$nnnn$$$$....$$$$nnnn$$$$  ..",
"$$$$....nnnnnnnn$$$$$$$$nnnn..  ++$$nnnn$$$$....$$$$nnnn$$$$....",
"$$$$....nnnnnnnn$$$$$$$$nnnn... +O+$nnnn$$$$... $$$$nnnv$$$$...."
};
