/* XPM */
static char *result[] = {
/* columns rows colors chars-per-pixel */
"64 64 184 2 ",
"   c #2B0E05",
".  c #2C1106",
"X  c #301006",
"o  c #311206",
"O  c #381407",
"+  c #391407",
"@  c #3A1407",
"#  c #382D1A",
"$  c #002B23",
"%  c #002B24",
"&  c #002E27",
"*  c #002F28",
"=  c #00332C",
"-  c #00352C",
";  c #00362D",
":  c #003B31",
">  c #023833",
",  c #023A32",
"<  c #023B33",
"1  c #003D32",
"2  c #023A34",
"3  c #003E34",
"4  c #013E34",
"5  c #003F37",
"6  c #4C1708",
"7  c #4A1808",
"8  c #541903",
"9  c #501804",
"0  c #511908",
"q  c #541A09",
"w  c #551A09",
"e  c #571B08",
"r  c #571B09",
"t  c #49200B",
"y  c #402512",
"u  c #004237",
"i  c #004338",
"p  c #004439",
"a  c #00443A",
"s  c #00463A",
"d  c #01473A",
"f  c #00473B",
"g  c #00483C",
"h  c #00493C",
"j  c #03493C",
"k  c #004B3E",
"l  c #004B3F",
"z  c #034B3E",
"x  c #004C3F",
"c  c #004D40",
"v  c #014D40",
"b  c #004E41",
"n  c #014E42",
"m  c #004F42",
"M  c #015144",
"N  c #025045",
"B  c #005245",
"V  c #015245",
"C  c #035346",
"Z  c #02534A",
"A  c #005649",
"S  c #01574B",
"D  c #04564F",
"F  c #02594D",
"G  c #005A4D",
"H  c #04594C",
"J  c #05594C",
"K  c #065A4D",
"L  c #065952",
"P  c #065A53",
"I  c #005D51",
"U  c #005F51",
"Y  c #005F52",
"T  c #036155",
"R  c #036156",
"E  c #006656",
"W  c #086053",
"Q  c #096255",
"!  c #036459",
"~  c #00675A",
"^  c #0E675B",
"/  c #00695B",
"(  c #026C5F",
")  c #0D6C5F",
"_  c #006F61",
"`  c #056F65",
"'  c #0E6D60",
"]  c #007063",
"[  c #017063",
"{  c #007563",
"}  c #057167",
"|  c #0F7063",
" . c #057369",
".. c #007B6D",
"X. c #037C6D",
"o. c #107165",
"O. c #008072",
"+. c #008577",
"@. c #078178",
"#. c #08867D",
"$. c #00897B",
"%. c #138375",
"&. c #19877B",
"*. c #148A7D",
"=. c #088B82",
"-. c #0A968E",
";. c #1D9185",
":. c #1E9387",
">. c #0A9B93",
",. c #0B9B94",
"<. c #1A9D90",
"1. c #219A8E",
"2. c #0BA099",
"3. c #24A296",
"4. c #25A397",
"5. c #26A599",
"6. c #26A69A",
"7. c #0BAFA7",
"8. c #00BFA5",
"9. c #0BB0A8",
"0. c #0DB1AB",
"q. c #0EB1AC",
"w. c #0EB6B1",
"e. c #0DB9B2",
"r. c #01C0A7",
"t. c #01C1A7",
"y. c #01C1A8",
"u. c #01C3AA",
"i. c #02C3AB",
"p. c #02C5AD",
"a. c #03C6AF",
"s. c #03C7B1",
"d. c #04CAB5",
"f. c #05CBB6",
"g. c #0CC5BB",
"h. c #0CC5BC",
"j. c #05CDB8",
"k. c #07D1BF",
"l. c #07D2BF",
"z. c #0FC7C1",
"x. c #0ECDC4",
"c. c #10C6C2",
"v. c #11CBC7",
"b. c #08D3C2",
"n. c #08D4C2",
"m. c #09D8C8",
"M. c #0AD9CA",
"N. c #0ADBCC",
"B. c #0BDBCD",
"V. c #0BDDCF",
"C. c #0BDDD0",
"Z. c #0CDED1",
"A. c #12D7D4",
"S. c #10D8D2",
"D. c #13D9D6",
"F. c #13DDDA",
"G. c #0CE0D3",
"H. c #0DE1D5",
"J. c #0DE3D7",
"K. c #0EE3D8",
"L. c #0EE5DA",
"P. c #13E5E1",
"I. c #14E7E5",
"U. c #10EAE2",
"Y. c #10EBE2",
"T. c #15E8E6",
"R. c #11ECE5",
"E. c #15EBE9",
"W. c #15EBEA",
"Q. c #13F1EC",
"!. c #13F3EE",
"~. c #15F1EF",
"^. c #16F3F2",
"/. c #15F7F3",
"(. c #17F5F4",
"). c #15F8F5",
"_. c #17F9F8",
"`. c #16FBF9",
"'. c #17FBFA",
"]. c #17FBFB",
"[. c #17FDFD",
"{. c #17FEFD",
"}. c #18FFFF",
"|. c None",
/* pixels */
"|.|.|.|.|.|.|.|.|.|.|.|.|.|.|.|.|.|.|.|.|.|.|.|.|.|.|.|.|.|.|.|.|.|.|.|.|.|.|.|.|.|.|.|.|.|.|.|.|.|.|.|.f x x x x x x x x x x x ",
"|.|.|.|.|.|.|.|.|.|.|.|.|.|.|.|.|.|.|.|.|.|.|.|.|.|.|.|.|.|.|.|.|.|.|.|.|.|.|.|.|.|.|.|.|.|.|.|.|.|.|.|.g c c c c c c c c c c c ",
"|.|.|.|.|.|.|.|.|.|.|.|.|.|.|.|.|.|.|.|.|.|.|.|.|.|.|.|.|.|.|.|.|.|.|.|.|.|.|.|.|.|.|.|.|.|.|.|.|.|.|.|.g c c c c c c c c c c c ",
"|.|.|.|.|.|.|.|.|.|.|.|.|.|.|.|.|.|.|.|.|.|.|.|.|.|.|.|.|.|.|.|.|.|.|.|.|.|.|.|.|.|.|.|.|.|.|.|.|.|.|.|.g c c c c c c c c c c c ",
"|.|.|.|.|.|.|.|.|.|.|.|.|.|.|.|.|.|.|.|.|.|.|.|.|.|.|.|.|.|.|.|.|.|.|.|.|.|.|.|.|.|.|.|.|.|.|.|.i c c c ^.}.}.}.t.8.8.8.b c c c ",
"|.|.|.|.|.|.|.|.|.|.|.|.|.|.|.|.|.|.|.|.|.|.|.|.|.|.|.|.|.|.|.|.|.|.|.|.|.|.|.|.|.|.|.|.|.|.|.|.i c c c ^.}.}.}.t.8.8.8.b c c c ",
"|.|.|.|.|.|.|.|.|.|.|.|.|.|.|.|.|.|.|.|.|.|.|.|.|.|.|.|.|.|.|.|.|.|.|.|.|.|.|.|.|.|.|.|.|.|.|.|.i c c c ^.}.}.}.t.8.8.8.b c c c ",
"|.|.|.|.|.|.|.|.|.|.|.|.|.|.|.|.|.|.|.|.|.|.|.|.|.|.|.|.|.|.|.|.|.|.|.|.|.|.|.|.|.|.|.|.|.|.|.|.p b b b ^.}.}.}.y.8.8.8.b c c c ",
"|.|.|.|.|.|.|.|.|.|.|.|.|.|.|.|.|.|.|.|.|.|.|.|.|.|.|.|.|.|.|.|.|.|.|.|.|.|.|.|.|.|.|.|.1 c c c T.}.}.}.i.8.8.8.[.}.}.}.b c c c ",
"|.|.|.|.|.|.|.|.|.|.|.|.|.|.|.|.|.|.|.|.|.|.|.|.|.|.|.|.|.|.|.|.|.|.|.|.|.|.|.|.|.|.|.|.1 c c c T.}.}.}.i.8.8.8.[.}.}.}.b c c c ",
"|.|.|.|.|.|.|.|.|.|.|.|.|.|.|.|.|.|.|.|.|.|.|.|.|.|.|.|.|.|.|.|.|.|.|.|.|.|.|.|.|.|.|.|.1 c c c T.}.}.}.i.8.8.8.[.}.}.}.b c c c ",
"|.|.|.|.|.|.|.|.|.|.|.|.|.|.|.|.|.|.|.|.|.|.|.|.|.|.|.|.|.|.|.|.|.|.|.|.|.|.|.|.|.|.|.|.5 M M M I.{.{.{.p.r.r.r._.].].].c l l l ",
"|.|.|.|.|.|.|.|.|.|.|.|.|.|.|.|.|.|.|.|.|.|.|.|.|.|.|.|.|.|.|.|.|.|.|.|.|.|.|.|.= c c c D.}.}.}.s.8.8.8.`.}.}.}.V c c c |.|.|.|.",
"|.|.|.|.|.|.|.|.|.|.|.|.|.|.|.|.|.|.|.|.|.|.|.|.|.|.|.|.|.|.|.|.|.|.|.|.|.|.|.|.= c c c D.}.}.}.s.8.8.8.`.}.}.}.V c c c |.|.|.|.",
"|.|.|.|.|.|.|.|.|.|.|.|.|.|.|.|.|.|.|.|.|.|.|.|.|.|.|.|.|.|.|.|.|.|.|.|.|.|.|.|.= c c c D.}.}.}.s.8.8.8.`.}.}.}.V c c c |.|.|.|.",
"|.|.|.|.|.|.|.|.|.|.|.|.|.|.|.|.|.|.|.|.|.|.|.|.|.|.|.|.|.|.|.|.|.|.|.|.|.|.|.|.4 S S S A.'.'.'.d.u.u.u.~.(.(.(.n h h h |.|.|.|.",
"|.|.|.|.|.|.|.|.|.|.|.|.|.|.|.|.|.|.|.|.|.|.|.|.|.|.|.|.|.|.|.|.|.|.|.|.$ c c c c.}.}.}.j.8.8.8./.}.}.}.F c c c |.|.|.|.|.|.|.|.",
"|.|.|.|.|.|.|.|.|.|.|.|.|.|.|.|.|.|.|.|.|.|.|.|.|.|.|.|.|.|.|.|.|.|.|.|.$ c c c c.}.}.}.j.8.8.8./.}.}.}.F c c c |.|.|.|.|.|.|.|.",
"|.|.|.|.|.|.|.|.|.|.|.|.|.|.|.|.|.|.|.|.|.|.|.|.|.|.|.|.|.|.|.|.|.|.|.|.$ c c c c.}.}.}.j.8.8.8./.}.}.}.F c c c |.|.|.|.|.|.|.|.",
"|.|.|.|.|.|.|.|.|.|.|.|.|.|.|.|.|.|.|.|.|.|.|.|.|.|.|.|.|.|.|.|.|.|.|.|.< T R R z.).).).k.a.a.a.P.E.E.W.N a a a |.|.|.|.|.|.|.|.",
"|.|.|.|.|.|.|.|.|.|.|.|.|.|.|.|.|.|.|.|.|.|.|.|.|.|.|.|.|.|.|.|.|.c c c q.}.}.}.b.8.8.8.Q.}.}.}.! c c c |.|.|.|.|.|.|.|.|.|.|.|.",
"|.|.|.|.|.|.|.|.|.|.|.|.|.|.|.|.|.|.|.|.|.|.|.|.|.|.|.|.|.|.|.|.|.c c c q.}.}.}.b.8.8.8.Q.}.}.}.! c c c |.|.|.|.|.|.|.|.|.|.|.|.",
"|.|.|.|.|.|.|.|.|.|.|.|.|.|.|.|.|.|.|.|.|.|.|.|.|.|.|.|.|.|.|.|.|.c c c q.}.}.}.b.8.8.8.Q.}.}.}.! c c c |.|.|.|.|.|.|.|.|.|.|.|.",
"|.|.|.|.|.|.|.|.|.|.|.|.|.|.|.|.|.|.|.|.|.|.|.|.|.|.|.|.|.|.|.|.> ` ` ` e.!.!.!.m.f.f.f.S.F.F.F.Z 3 3 3 |.|.|.|.|.|.|.|.|.|.|.|.",
"|.|.|.|.|.|.|.|.|.c c c c c c c g |.|.|.|.|.|.|.|.|.|.|.|.c c c ,.}.}.}.N.8.8.8.Y.}.}.}. .c c c |.|.|.|.|.|.|.|.|.|.|.|.|.|.|.|.",
"|.|.|.|.|.|.|.|.|.c c c c c c c g |.|.|.|.|.|.|.|.|.|.|.|.c c c ,.}.}.}.N.8.8.8.Y.}.}.}. .c c c |.|.|.|.|.|.|.|.|.|.|.|.|.|.|.|.",
"|.|.|.|.|.|.|.|.|.c c c c c c c g |.|.|.|.|.|.|.|.|.|.|.|.c c c ,.}.}.}.N.8.8.8.Y.}.}.}. .c c c |.|.|.|.|.|.|.|.|.|.|.|.|.|.|.|.",
"|.|.|.|.|.|.|.|.|.c c c c U U U G |.|.|.|.|.|.|.|.|.|.|.2 @.@.@.9.R.R.R.C.l.l.l.x.v.v.v.D ; ; ; |.|.|.|.|.|.|.|.|.|.|.|.|.|.|.|.",
"|.|.|.|.|.|.|.|.|.c c c m $.$.$.+.c c c i |.|.|.|.c c c #.}.}.}.J.8.8.8.K.}.}.}.#.c c c |.|.|.|.|.|.|.|.|.|.|.|.|.|.|.|.|.|.|.|.",
"|.|.|.|.|.|.|.|.|.c c c m $.$.$.+.c c c i |.|.|.|.c c c #.}.}.}.J.8.8.8.K.}.}.}.#.c c c |.|.|.|.|.|.|.|.|.|.|.|.|.|.|.|.|.|.|.|.",
"|.|.|.|.|.|.|.|.|.c c c m $.$.$.+.c c c i |.|.|.|.c c c #.}.}.}.J.8.8.8.K.}.}.}.#.c c c |.|.|.|.|.|.|.|.|.|.|.|.|.|.|.|.|.|.|.|.",
"|.|.|.|.|.|.|.|.|.& & & * ] ] ] [ o.o.o.^ |.|.|., -.-.-.7.L.L.L.G.M.M.M.h.w.w.w.L & & & |.|.|.|.|.|.|.|.|.|.|.|.|.|.|.|.|.|.|.|.",
"|.|.|.|.|.|.|.|.|.|.|.|.|.c c c C 6.6.6.1.c c c  .}.}.}.U.8.8.8.B.}.}.}.>.c c c |.|.|.|.|.|.|.|.|.|.|.|.|.|.|.|.|.|.|.|.|.|.|.|.",
"|.|.|.|.|.|.|.|.|.|.|.|.|.c c c C 6.6.6.1.c c c  .}.}.}.U.8.8.8.B.}.}.}.>.c c c |.|.|.|.|.|.|.|.|.|.|.|.|.|.|.|.|.|.|.|.|.|.|.|.",
"|.|.|.|.|.|.|.|.|.|.|.|.|.c c c C 6.6.6.1.c c c  .}.}.}.U.8.8.8.B.}.}.}.>.c c c |.|.|.|.|.|.|.|.|.|.|.|.|.|.|.|.|.|.|.|.|.|.|.|.",
"|.|.|.|.|.|.|.|.|.|.|.|.|.c c c C 6.6.6.1.c c c ( V.V.V.Z.H.H.H.g.2.2.2.} c c c |.|.|.|.|.|.|.|.|.|.|.|.|.|.|.|.|.|.|.|.|.|.|.|.",
"|.|.|.|.|.|.|.|.|.|.|.|.|.c c c C 6.6.6.1.c c c E 8.8.8.n.}.}.}.0.c c c - |.|.|.|.|.|.|.|.|.|.|.|.|.|.|.|.|.|.|.|.|.|.|.|.|.|.|.",
"|.|.|.|.|.|.|.|.|.|.|.|.|.c c c C 6.6.6.1.c c c E 8.8.8.n.}.}.}.0.c c c |.|.|.|.|.|.|.|.|.|.|.|.|.|.|.|.|.|.|.|.|.|.|.|.|.|.|.|.",
"|.|.|.|.|.|.|.|.|.|.|.|.|.c c c C 6.6.6.1.c c c E 8.8.8.n.}.}.}.0.c c c |.|.|.|.|.|.|.|.|.|.|.|.|.|.|.|.|.|.|.|.|.|.|.|.|.|.|.|.",
"|.|.|.|.|.|.|.|.|.|.|.|.|.|.|.|.|.) ) ) | &.&.&.%.{ { { X.=.=.=.P |.|.|.|.|.|.|.|.|.|.|.|.|.|.|.|.|.|.|.|.|.|.|.|.|.|.|.|.|.|.|.",
"|.|.|.|.|.|.|.|.|.|.|.|.|.|.|.|.|.c c c J 6.6.6.:.c c c c c c c % |.|.|.|.|.|.|.|.|.|.|.|.|.|.|.|.|.|.|.|.|.|.|.|.|.|.|.|.|.|.|.",
"|.|.|.|.|.|.|.|.|.|.|.|.|.|.|.|.|.c c c J 6.6.6.:.c c c c c c c % |.|.|.|.|.|.|.|.|.|.|.|.|.|.|.|.|.|.|.|.|.|.|.|.|.|.|.|.|.|.|.",
"|.|.|.|.|.|.|.|.|.|.|.|.|.|.|.|.|.c c c J 6.6.6.:.c c c c c c c % |.|.|.|.|.|.|.|.|.|.|.|.|.|.|.|.|.|.|.|.|.|.|.|.|.|.|.|.|.|.|.",
"|.|.|.|.|.|.|.|.|.|.|.|.|.      . y y y # Q Q Q ' ;.;.;.*.......Y : : : |.|.|.|.|.|.|.|.|.|.|.|.|.|.|.|.|.|.|.|.|.|.|.|.|.|.|.|.",
"|.|.|.|.|.|.|.|.|.|.|.|.|.O O O @ 8 8 8 t c c c W 6.6.6.<.$.$.$._ c c c |.|.|.|.|.|.|.|.|.|.|.|.|.|.|.|.|.|.|.|.|.|.|.|.|.|.|.|.",
"|.|.|.|.|.|.|.|.|.|.|.|.|.O O O @ 8 8 8 t c c c W 6.6.6.<.$.$.$._ c c c |.|.|.|.|.|.|.|.|.|.|.|.|.|.|.|.|.|.|.|.|.|.|.|.|.|.|.|.",
"|.|.|.|.|.|.|.|.|.|.|.|.|.O O O @ 8 8 8 t c c c W 6.6.6.<.$.$.$._ c c c |.|.|.|.|.|.|.|.|.|.|.|.|.|.|.|.|.|.|.|.|.|.|.|.|.|.|.|.",
"|.|.|.|.|.|.|.|.|.X X X o 9 9 9 9 e e e 7 |.|.|.|.K K K H A A A / O.O.O.I u u u |.|.|.|.|.|.|.|.|.|.|.|.|.|.|.|.|.|.|.|.|.|.|.|.",
"|.|.|.|.|.|.|.|.|.O O O + 8 8 8 8 r r r 6 |.|.|.|.c c c c c c c ~ $.$.$.~ c c c |.|.|.|.|.|.|.|.|.|.|.|.|.|.|.|.|.|.|.|.|.|.|.|.",
"|.|.|.|.|.|.|.|.|.O O O + 8 8 8 8 r r r 6 |.|.|.|.c c c c c c c ~ $.$.$.~ c c c |.|.|.|.|.|.|.|.|.|.|.|.|.|.|.|.|.|.|.|.|.|.|.|.",
"|.|.|.|.|.|.|.|.|.O O O + 8 8 8 8 r r r 6 |.|.|.|.c c c c c c c ~ $.$.$.~ c c c |.|.|.|.|.|.|.|.|.|.|.|.|.|.|.|.|.|.|.|.|.|.|.|.",
"s f f f f f f f d w w w q 8 r r 0 |.|.|.|.|.|.|.|.|.|.|.|.|.|.|.|.B B B m c c c |.|.|.|.|.|.|.|.|.|.|.|.|.|.|.|.|.|.|.|.|.|.|.|.",
"x c c c c c c c v r r r r 8 r r 0 |.|.|.|.|.|.|.|.|.|.|.|.|.|.|.|.c c c c c c c |.|.|.|.|.|.|.|.|.|.|.|.|.|.|.|.|.|.|.|.|.|.|.|.",
"x c c c c c c c v r r r r r r r 0 |.|.|.|.|.|.|.|.|.|.|.|.|.|.|.|.c c c c c c c |.|.|.|.|.|.|.|.|.|.|.|.|.|.|.|.|.|.|.|.|.|.|.|.",
"x c c c c c c c v r r r r r r r 0 |.|.|.|.|.|.|.|.|.|.|.|.|.|.|.|.c c c c c c c |.|.|.|.|.|.|.|.|.|.|.|.|.|.|.|.|.|.|.|.|.|.|.|.",
"x c c c 4.4.4.4.3.z z z j |.|.|.|.|.|.|.|.|.|.|.|.|.|.|.|.|.|.|.|.|.|.|.|.|.|.|.|.|.|.|.|.|.|.|.|.|.|.|.|.|.|.|.|.|.|.|.|.|.|.|.",
"x c c c 6.6.6.6.5.c c c k |.|.|.|.|.|.|.|.|.|.|.|.|.|.|.|.|.|.|.|.|.|.|.|.|.|.|.|.|.|.|.|.|.|.|.|.|.|.|.|.|.|.|.|.|.|.|.|.|.|.|.",
"x c c c 6.6.6.6.5.c c c k |.|.|.|.|.|.|.|.|.|.|.|.|.|.|.|.|.|.|.|.|.|.|.|.|.|.|.|.|.|.|.|.|.|.|.|.|.|.|.|.|.|.|.|.|.|.|.|.|.|.|.",
"x c c c 6.6.6.6.5.c c c k |.|.|.|.|.|.|.|.|.|.|.|.|.|.|.|.|.|.|.|.|.|.|.|.|.|.|.|.|.|.|.|.|.|.|.|.|.|.|.|.|.|.|.|.|.|.|.|.|.|.|.",
"x c c c 6.6.6.6.5.c c c k |.|.|.|.|.|.|.|.|.|.|.|.|.|.|.|.|.|.|.|.|.|.|.|.|.|.|.|.|.|.|.|.|.|.|.|.|.|.|.|.|.|.|.|.|.|.|.|.|.|.|.",
"x c c c b b b b b c c c k |.|.|.|.|.|.|.|.|.|.|.|.|.|.|.|.|.|.|.|.|.|.|.|.|.|.|.|.|.|.|.|.|.|.|.|.|.|.|.|.|.|.|.|.|.|.|.|.|.|.|.",
"x c c c c c c c c c c c k |.|.|.|.|.|.|.|.|.|.|.|.|.|.|.|.|.|.|.|.|.|.|.|.|.|.|.|.|.|.|.|.|.|.|.|.|.|.|.|.|.|.|.|.|.|.|.|.|.|.|.",
"x c c c c c c c c c c c k |.|.|.|.|.|.|.|.|.|.|.|.|.|.|.|.|.|.|.|.|.|.|.|.|.|.|.|.|.|.|.|.|.|.|.|.|.|.|.|.|.|.|.|.|.|.|.|.|.|.|.",
"x c c c c c c c c c c c k |.|.|.|.|.|.|.|.|.|.|.|.|.|.|.|.|.|.|.|.|.|.|.|.|.|.|.|.|.|.|.|.|.|.|.|.|.|.|.|.|.|.|.|.|.|.|.|.|.|.|."
};
