/* XPM */
static char *a322cd21133443e6f1b4e631d68a1bd0og5LxhlIONspcTzQ[] = {
/* columns rows colors chars-per-pixel */
"64 64 108 2 ",
"   c None",
".  c #160E05",
"X  c #160E06",
"o  c #1C1107",
"O  c #1D1107",
"+  c #1E1207",
"@  c #1E1208",
"#  c #201308",
"$  c #201409",
"%  c #221408",
"&  c #231508",
"*  c #251609",
"=  c #2B190A",
"-  c #2B1A0A",
";  c #2E1C0A",
":  c #01251F",
">  c #1B2D1F",
",  c #34200B",
"<  c #35200B",
"1  c #36210B",
"2  c #37220B",
"3  c #3A240B",
"4  c #3E260B",
"5  c #3A240C",
"6  c #3B240C",
"7  c #3B250D",
"8  c #3C250C",
"9  c #3D250C",
"0  c #3F260C",
"q  c #3F270C",
"w  c #012520",
"e  c #012720",
"r  c #012721",
"t  c #012723",
"y  c #012823",
"u  c #012B25",
"i  c #01322B",
"p  c #333920",
"a  c #333A21",
"s  c #41290C",
"d  c #432A0C",
"f  c #452B0C",
"g  c #442A0D",
"h  c #462C0D",
"j  c #4A2D0D",
"k  c #4A2E0D",
"l  c #4B2E0D",
"z  c #4D300E",
"x  c #4E310E",
"c  c #4F310E",
"v  c #50320D",
"b  c #50320E",
"n  c #52330F",
"m  c #53330F",
"M  c #53340E",
"N  c #54340F",
"B  c #56360E",
"V  c #58370F",
"C  c #59380F",
"Z  c #5B390F",
"A  c #4E3410",
"S  c #5C3910",
"D  c #744913",
"F  c #784B13",
"G  c #784C13",
"H  c #794D14",
"J  c #7A4D14",
"K  c #7B4D14",
"L  c #7C4E14",
"P  c #7C4F14",
"I  c #7D4F14",
"U  c #006456",
"Y  c #006656",
"T  c #006857",
"R  c #006957",
"E  c #006E5D",
"W  c #006F5D",
"Q  c #007260",
"!  c #007361",
"~  c #007964",
"^  c #007A65",
"/  c #007B66",
"(  c #00816C",
")  c #008A73",
"_  c #008B73",
"`  c #00A084",
"'  c #01A689",
"]  c #01A789",
"[  c #00A58A",
"{  c #00A58B",
"}  c #00A78A",
"|  c #00A78C",
" . c #00A78D",
".. c #00B093",
"X. c #00B295",
"o. c #00B396",
"O. c #00B496",
"+. c #00BA9C",
"@. c #00BB9D",
"#. c #00C4A3",
"$. c #00C7A5",
"%. c #00CEAB",
"&. c #00CFAC",
"*. c #00D0AD",
"=. c #00D1AD",
"-. c #00DAB5",
";. c #00E1BA",
":. c #00ECC3",
/* pixels */
"                                                                                                                                ",
"                                                                                                                                ",
"                                                                                                                                ",
"                                                                                                                                ",
"                                          r t r t t t t t t t t t t t t t t t t y y :                                           ",
"                                          r u u u u u u u u u u u u u u u u u u u u r                                           ",
"                                          r u u u u u u u u u u u u u u u u u u u u r                                           ",
"                                          r u u u u u u u u u u u u u u u u u u u u :                                           ",
"                                          ^ ) ) _ ( Q Q Q Q R Y T T T T T T E Q Q Q Y                                           ",
"                                  u u u u %.:.:.:.-.@.@.+.+.} } } } } } } } O.+.@.@. .u u u u 8 6 6 6 Z Z Z Z                   ",
"                                  u u u u %.:.:.:.-.@.@.@.+.} } } } } } } } O.+.@.@. .u u u u 3 6 6 5 V Z Z Z                   ",
"                                  u u u u %.:.:.:.-.@.@.@.+.} } } } } } } } O.+.@.@. .u u u u 3 6 6 5 Z Z Z Z                   ",
"                                  r u y u #.;.;.;.*.o.o.o.o.` ` ` ` ` ` ` ` ..+.+.+.| i i i i s 8 s s N V V V                   ",
"                                          r u u u u u u u u u u u u u u u u ~ } | | ] ] ] | ] P I I L * # # #                   ",
"                                          r u u u u u u u u u u u u u u u u ^ } | ] | | ] ] ] P I I L * # # #                   ",
"                                          r u u u u u u u u u u u u u u u u ^ } | ] ] ] | ] ] P I L L * # # #                   ",
"                                          r u u u u u u u u u u u u u u u u ~ | ] | | | | | ] P I I I * # # #                   ",
"                                                                            - 6 8 4 a +.+.+.+.] ' ' ' i u u u                   ",
"                                                                            - 6 8 3 a +.+.+.+.| } } } i u u u                   ",
"                                                                            - 6 3 3 a @.@.+.+.| } } } i u u u                   ",
"                                                                            - 6 3 3 a @.+.@.@.| } } } i u u u                   ",
"                                                                    , 2 2 2 k B V V x > > > > | } } } } { }  .Y y y w w         ",
"                                                                    5 5 6 6 x Z Z Z M @ # # $ } } } } +.+.+.+.! u u u t         ",
"                                                                    5 6 6 3 M Z Z Z M $ # # $ } } } } +.+.+.@.! u u u t         ",
"                                                                    5 5 6 6 c Z Z Z m $ # # # } ] ] | +.+.+.+.Q u u u t         ",
"                                                                    m N N N k f f f 4 . . . . ^ ~ ~ ~ ..O.O.O.W u u u t         ",
"                                                            6 6 8 6 I I I I f @ # # +         u u u u ` | | | R u u u u         ",
"                                                            6 6 5 6 J I I I f # # @ +         u u u u ` ] ] ] R u u u w         ",
"                                                            6 6 5 5 L L I I s # $ $ +         u u u u ` ] ] | R u u u t         ",
"                                                            8 8 8 4 F K J J s # $ $ +         u u u u ` | ] ] R u u u t         ",
"                                                    6 6 6 8 Z Z Z Z & # # #                   u u u u ` | ] | T u u u t         ",
"                                                    6 6 6 8 Z Z Z Z $ # # #                   u u u u ` ] | | T u u u t         ",
"                                                    6 6 3 4 Z Z Z Z # # # #                   u u u u ` | ] | R u u u r         ",
"                                                    6 6 6 4 Z Z Z Z * # # #                   u u u u ` | | ] R u u u r         ",
"                                          2 5 5 6 m J K I D $ $ # %                           u u u u o.+.+.+.Q u u u r         ",
"                                          2 6 6 6 M I I I I # # # #                           u u u u o.@.@.@.! u u u y         ",
"                                          2 5 6 6 N I I I K $ # # #                           u u u u o.+.@.@.! u u u t         ",
"                                          2 5 5 6 N I I I K # # # #                           u u u u o.@.@.@.! u u u t         ",
"                                  - - - - k c c c k s f s s                                   u u u u %.-.-.-.( u u u t         ",
"                                  6 6 6 6 B Z Z S f # # # #                                   u u u u ;.:.:.:._ u u u t         ",
"                                  6 6 6 6 V S Z Z f # # # #                                   u u u u ;.:.:.:._ u u u y         ",
"                                  6 6 6 6 N Z Z Z f # # # #                                   u u u u ;.:.:.:._ u u u y         ",
"                                  f s f s m M M B 8 + + + +                                   r : : y $.*.*.*./ r r : :         ",
"                          8 6 6 6 I I I I ; # # # .                                                   y u u u                   ",
"                          6 6 6 4 I P P I ; # # # .                                                   y u u u                   ",
"                          6 6 6 6 I P P I ; # # # .                                                   y u u u                   ",
"                          8 6 6 6 I L P I ; # # # .                                                   y u u u                   ",
"                  5 8 6 8 Z Z Z Z # # $ @                                                                                       ",
"                  6 6 6 6 Z Z Z Z # # # #                                                                                       ",
"                  6 6 6 8 S Z Z Z # # # #                                                                                       ",
"                  6 6 6 4 Z Z Z Z $ $ $ #                                                                                       ",
"        2 2 2 3 V K K G D & & $ $                                                                                               ",
"        2 6 6 6 Z P P P K $ $ # $                                                                                               ",
"        2 6 6 6 S P P P G + # # $                                                                                               ",
"        2 8 5 6 S I K P K # # # $                                                                                               ",
"        h k l l l m c c k                                                                                                       ",
"        B Z Z Z 4 $ # # +                                                                                                       ",
"        B Z Z Z 4 # # # @                                                                                                       ",
"        B Z Z Z 4 # # # @                                                                                                       ",
"        m B B B 3 + + + +                                                                                                       ",
"                                                                                                                                ",
"                                                                                                                                ",
"                                                                                                                                ",
"                                                                                                                                "
};
