/* XPM */
static char *result[] = {
/* columns rows colors chars-per-pixel */
"64 64 118 2 ",
"   c #141006",
".  c #161006",
"X  c #171108",
"o  c #1D1608",
"O  c #241B0A",
"+  c #241B0B",
"@  c #261A0A",
"#  c #241C0A",
"$  c #261C0A",
"%  c #271E0B",
"&  c #271B0C",
"*  c #241C0C",
"=  c #261C0C",
"-  c #281E0B",
";  c #291E0B",
":  c #281F0C",
">  c #291F0C",
",  c #08201A",
"<  c #08211B",
"1  c #08201C",
"2  c #2C210C",
"3  c #2E220D",
"4  c #2F230E",
"5  c #34270E",
"6  c #3B2B11",
"7  c #3A2C10",
"8  c #3B2C11",
"9  c #0A2D26",
"0  c #0A2D27",
"q  c #0A2E27",
"w  c #0B332B",
"e  c #0B332C",
"r  c #0B342C",
"t  c #0D3B32",
"y  c #0E3E35",
"u  c #0E3F35",
"i  c #0D3F36",
"p  c #0E3F36",
"a  c #3E392E",
"s  c #453214",
"d  c #483515",
"f  c #493515",
"g  c #483614",
"h  c #493615",
"j  c #4B3715",
"k  c #493616",
"l  c #493716",
"z  c #4A3616",
"x  c #4A3716",
"c  c #4C3816",
"v  c #4C3916",
"b  c #523C17",
"n  c #40392E",
"m  c #40392F",
"M  c #0E4036",
"N  c #0E4137",
"B  c #584219",
"V  c #594219",
"C  c #584319",
"Z  c #5C461A",
"A  c #5F471B",
"S  c #61481B",
"D  c #644B1D",
"F  c #654C1D",
"G  c #684D1E",
"H  c #684E1E",
"J  c #694E1E",
"K  c #6D521F",
"L  c #534633",
"P  c #534834",
"I  c #7D5E23",
"U  c #7D5E24",
"Y  c #7E5F24",
"T  c #125245",
"R  c #125246",
"E  c #235845",
"W  c #1D6F5D",
"Q  c #1C7F6D",
"!  c #856426",
"~  c #886627",
"^  c #886727",
"/  c #896727",
"(  c #1F8D79",
")  c #3E9070",
"_  c #3E9170",
"`  c #209580",
"'  c #229C86",
"]  c #229C87",
"[  c #27B29A",
"{  c #27B39B",
"}  c #28B89F",
"|  c #30B194",
" . c #28BAA0",
".. c #28BAA1",
"X. c #29BCA3",
"o. c #29BEA4",
"O. c #2AC0A7",
"+. c #2BC5AB",
"@. c #2BC6AB",
"#. c #2BC6AC",
"$. c #2BC7AC",
"%. c #2BC9AE",
"&. c #2CC9AE",
"*. c #2CCAAE",
"=. c #2CCAAF",
"-. c #2DCEB2",
";. c #2DD1B4",
":. c #2DD1B5",
">. c #2FD8BB",
",. c #2FD9BB",
"<. c #31E0C1",
"1. c #32E5C5",
"2. c #32E5C6",
"3. c #32E7C7",
"4. c #33EACA",
"5. c #33EBCA",
"6. c #33EBCB",
"7. c None",
/* pixels */
"7.7.7.7.7.7.7.7.7.7.7.7.7.7.7.7.7.7.7.7.7.7.7.7.7.7.7.7.7.7.7.7.7.7.7.7.7.7.7.7.7.7.7.7.7.7.7.7.7.7.7.7.7.7.7.7.7.7.7.7.7.7.7.7.",
"7.7.7.7.7.7.7.7.7.7.7.7.7.7.7.7.7.7.7.7.7.7.7.7.7.7.7.7.7.7.7.7.7.7.7.7.7.7.7.7.7.7.7.7.7.7.7.7.7.7.7.7.7.7.7.7.7.7.7.7.7.7.7.7.",
"7.7.7.7.7.7.7.7.7.7.7.7.7.7.7.7.7.7.7.7.7.7.7.7.7.7.7.7.7.7.7.7.7.7.7.7.7.7.7.7.7.7.7.7.7.7.7.7.7.7.7.7.7.7.7.7.7.7.7.7.7.7.7.7.",
"7.7.7.7.7.7.7.7.7.7.7.7.7.7.7.7.7.7.7.7.7.7.7.7.7.7.7.7.7.7.7.7.7.7.7.7.7.7.7.7.7.7.0 p i p i i i i p i p p p e 7.7.7.7.7.7.7.7.",
"7.7.7.7.7.7.7.7.7.7.7.7.7.7.7.7.7.7.7.7.7.7.7.7.7.7.7.7.7.7.7.7.7.7.7.7.7.7.7.7.7.7.0 p i p p i p i p i p p p e 7.7.7.7.7.7.7.7.",
"7.7.7.7.7.7.7.7.7.7.7.7.7.7.7.7.7.7.7.7.7.7.7.7.7.7.7.7.7.7.7.7.7.7.7.7.7.7.7.7.7.7.0 p i p i i i i i i p p p e 7.7.7.7.7.7.7.7.",
"7.7.7.7.7.7.7.7.7.7.7.7.7.7.7.7.7.7.7.7.7.7.7.7.7.7.7.7.7.7.7.7.7.7.7.7.7.7.7.7.7.7.q M p p M M M M M p p p p r 7.7.7.7.7.7.7.7.",
"7.7.7.7.7.7.7.7.7.7.7.7.7.7.7.7.7.7.7.7.7.7.7.7.7.7.7.7.7.7.7.7.7.7.7.7.7.7.i i i i  .4.4.4.4.4.4.4.4.} [ [ [ ] i i i i 7.7.7.7.",
"7.7.7.7.7.7.7.7.7.7.7.7.7.7.7.7.7.7.7.7.7.7.7.7.7.7.7.7.7.7.7.7.7.7.7.7.7.7.i i i i ..6.6.6.6.6.6.6.6.} [ [ [ ] i i i i 7.7.7.7.",
"7.7.7.7.7.7.7.7.7.7.7.7.7.7.7.7.7.7.7.7.7.7.7.7.7.7.7.7.7.7.7.7.7.7.7.7.7.7.i i i p ..6.6.6.6.6.6.6.6.} [ [ [ ] i i i i 7.7.7.7.",
"7.7.7.7.7.7.7.7.7.7.7.7.7.7.7.7.7.7.7.7.7.7.7.7.7.7.7.7.7.7.7.7.7.7.7.7.7.7.i i i p ..6.6.6.6.6.6.6.6.} [ [ [ ] i i i i 7.7.7.7.",
"7.7.7.7.7.7.7.7.7.7.7.7.7.7.7.7.7.7.7.7.7.7.7.7.7.7.7.7.7.7.7.7.7.7.1 1 1 < ` ` ` ` @.,.,.,.>.-.-.-.-.-.-.-.-.{ p i i i 7.7.7.7.",
"7.7.7.7.7.7.7.7.7.7.7.7.7.7.7.7.7.7.7.7.7.7.7.7.7.7.7.7.7.7.7.7.7.1 p p p N 6.6.6.6.;.$.$.$.+.[ [ [ [ 1.6.6.6.*.p p p p 7.7.7.7.",
"7.7.7.7.7.7.7.7.7.7.7.7.7.7.7.7.7.7.7.7.7.7.7.7.7.7.7.7.7.7.7.7.7.1 p i i N 6.6.6.6.:.$.$.$.@.[ [ [ [ 2.6.6.6.=.i i i i 7.7.7.7.",
"7.7.7.7.7.7.7.7.7.7.7.7.7.7.7.7.7.7.7.7.7.7.7.7.7.7.7.7.7.7.7.7.7.1 p i i N 6.6.6.6.:.$.$.$.@.[ [ [ [ 2.6.6.6.=.i i i i 7.7.7.7.",
"7.7.7.7.7.7.7.7.7.7.7.7.7.7.7.7.7.7.7.7.7.7.7.7.7.7.7.7.7.7.7.7.7.1 p i i N 6.6.6.6.:.$.$.$.@.[ [ [ [ 2.6.6.6.=.i i i i 7.7.7.7.",
"7.7.7.7.7.7.7.7.7.7.7.7.7.7.7.7.7.7.7.7.7.7.7.7.7.7.7.7.7.y u u u ` 6.6.6.5.#.#.#.#.} [ [ [ { #.#.#.#.3.6.6.5.*.u u u u 7.7.7.7.",
"7.7.7.7.7.7.7.7.7.7.7.7.7.7.7.7.7.7.7.7.7.7.7.7.7.7.7.7.7.y u u u ` 6.6.6.5.#.#.#.#.} [ [ [ { #.#.#.#.3.6.6.5.*.u u u u 7.7.7.7.",
"7.7.7.7.7.7.7.7.7.7.7.7.7.7.7.7.7.7.7.7.7.7.7.7.7.7.7.7.7.y u u u ` 6.6.6.5.#.#.#.#.} [ [ [ { #.#.#.#.3.6.6.5.*.u u u u 7.7.7.7.",
"7.7.7.7.7.7.7.7.7.7.7.7.7.7.7.7.7.7.7.7.7.7.7.7.7.7.7.7.7.y u u u ` 5.5.5.4.#.#.#.#.} [ [ [ { #.#.#.#.3.5.5.5.*.u u u u 7.7.7.7.",
"7.7.7.7.7.7.7.7.7.7.7.7.7.7.7.7.7.7.7.7.7.7.7.7.7.7.7.7.7.7.1 1 1 E ) ) ) _ X.X.X.X.X.X.X.X.o.,.,.,.,.' ` ` ` Q 1 1 1 1 7.7.7.7.",
"7.7.7.7.7.7.7.7.7.7.7.7.7.7.7.7.7.7.7.7.7.7.7.7.7.7.7.7.7.7.7.7.7.# f f f l [ [ [ [ O.#.#.#.%.5.5.5.5.R u u u w 7.7.7.7.7.7.7.7.",
"7.7.7.7.7.7.7.7.7.7.7.7.7.7.7.7.7.7.7.7.7.7.7.7.7.7.7.7.7.7.7.7.7.$ f f f k [ [ [ [ O.#.#.#.%.6.6.6.6.R u u u w 7.7.7.7.7.7.7.7.",
"7.7.7.7.7.7.7.7.7.7.7.7.7.7.7.7.7.7.7.7.7.7.7.7.7.7.7.7.7.7.7.7.7.* f f f k [ [ [ [ O.#.#.#.%.6.6.6.6.R u u u w 7.7.7.7.7.7.7.7.",
"7.7.7.7.7.7.7.7.7.7.7.7.7.7.7.7.7.7.7.7.7.7.7.7.7.7.7.7.7.7.7.7.7.= f f f l [ [ [ [ O.#.#.#.&.4.4.4.4.T u u u w 7.7.7.7.7.7.7.7.",
"7.7.7.7.7.7.7.7.7.7.7.7.7.7.7.7.7.7.7.7.7.7.7.7.7.7.7.7.7.d f f f J / / / ~ - - - - | 5.5.5.<.M M M p 7.7.7.7.7.7.7.7.7.7.7.7.7.",
"7.7.7.7.7.7.7.7.7.7.7.7.7.7.7.7.7.7.7.7.7.7.7.7.7.7.7.7.7.d f f f J / / / ~ - - - - | 6.6.6.<.u u u u 7.7.7.7.7.7.7.7.7.7.7.7.7.",
"7.7.7.7.7.7.7.7.7.7.7.7.7.7.7.7.7.7.7.7.7.7.7.7.7.7.7.7.7.d f f f J / / / ~ - - - - | 6.6.6.<.u u u u 7.7.7.7.7.7.7.7.7.7.7.7.7.",
"7.7.7.7.7.7.7.7.7.7.7.7.7.7.7.7.7.7.7.7.7.7.7.7.7.7.7.7.7.d f f f J / / / ~ - - - - | 5.5.5.<.u u u u 7.7.7.7.7.7.7.7.7.7.7.7.7.",
"7.7.7.7.7.7.7.7.7.7.7.7.7.7.7.7.7.7.7.7.7.7.7.7.7.# # # # G J J J S B B B B         W ` ` ` ( , , , , 7.7.7.7.7.7.7.7.7.7.7.7.7.",
"7.7.7.7.7.7.7.7.7.7.7.7.7.7.7.7.7.7.7.7.7.7.7.7.7.f f f f ^ / / / B - - - % 7.7.7.7.9 u u u t 7.7.7.7.7.7.7.7.7.7.7.7.7.7.7.7.7.",
"7.7.7.7.7.7.7.7.7.7.7.7.7.7.7.7.7.7.7.7.7.7.7.7.7.f f f f ^ / / / C - - - - 7.7.7.7.9 u u u t 7.7.7.7.7.7.7.7.7.7.7.7.7.7.7.7.7.",
"7.7.7.7.7.7.7.7.7.7.7.7.7.7.7.7.7.7.7.7.7.7.7.7.7.f f f f ~ / / / B - - - - 7.7.7.7.9 u u u t 7.7.7.7.7.7.7.7.7.7.7.7.7.7.7.7.7.",
"7.7.7.7.7.7.7.7.7.7.7.7.7.7.7.7.7.7.7.7.7.7.7.7.7.f f f f ^ / / / V - - - - 7.7.7.7.9 u u u t 7.7.7.7.7.7.7.7.7.7.7.7.7.7.7.7.7.",
"7.7.7.7.7.7.7.7.7.7.7.7.7.7.7.7.7.7.7.7.s f f f b H H H H ; - - -   7.7.7.7.7.7.7.7.7.7.7.7.7.7.7.7.7.7.7.7.7.7.7.7.7.7.7.7.7.7.",
"7.7.7.7.7.7.7.7.7.7.7.7.7.7.7.7.7.7.7.7.s f f f b H H H H ; - - -   7.7.7.7.7.7.7.7.7.7.7.7.7.7.7.7.7.7.7.7.7.7.7.7.7.7.7.7.7.7.",
"7.7.7.7.7.7.7.7.7.7.7.7.7.7.7.7.7.7.7.7.s f f f b H H H H ; - - -   7.7.7.7.7.7.7.7.7.7.7.7.7.7.7.7.7.7.7.7.7.7.7.7.7.7.7.7.7.7.",
"7.7.7.7.7.7.7.7.7.7.7.7.7.7.7.7.7.7.7.7.s f f f b H H H H ; - - -   7.7.7.7.7.7.7.7.7.7.7.7.7.7.7.7.7.7.7.7.7.7.7.7.7.7.7.7.7.7.",
"7.7.7.7.7.7.7.7.7.7.7.7.7.7.7.7.@ @ @ @ D J J J A g g g g .       7.7.7.7.7.7.7.7.7.7.7.7.7.7.7.7.7.7.7.7.7.7.7.7.7.7.7.7.7.7.7.",
"7.7.7.7.7.7.7.7.7.7.7.7.7.7.7.7.f f f f ! / / / K - - - - 7.7.7.7.7.7.7.7.7.7.7.7.7.7.7.7.7.7.7.7.7.7.7.7.7.7.7.7.7.7.7.7.7.7.7.",
"7.7.7.7.7.7.7.7.7.7.7.7.7.7.7.7.f f f f ! / / / K - - - - 7.7.7.7.7.7.7.7.7.7.7.7.7.7.7.7.7.7.7.7.7.7.7.7.7.7.7.7.7.7.7.7.7.7.7.",
"7.7.7.7.7.7.7.7.7.7.7.7.7.7.7.7.f f f f ! / / / K - - - - 7.7.7.7.7.7.7.7.7.7.7.7.7.7.7.7.7.7.7.7.7.7.7.7.7.7.7.7.7.7.7.7.7.7.7.",
"7.7.7.7.7.7.7.7.7.7.7.7.7.7.7.7.f f f f ! / / / K - - - - 7.7.7.7.7.7.7.7.7.7.7.7.7.7.7.7.7.7.7.7.7.7.7.7.7.7.7.7.7.7.7.7.7.7.7.",
"7.7.7.7.7.7.7.7.7.7.7.6 h h h c H H H H 2 - - - o 7.7.7.7.7.7.7.7.7.7.7.7.7.7.7.7.7.7.7.7.7.7.7.7.7.7.7.7.7.7.7.7.7.7.7.7.7.7.7.",
"7.7.7.7.7.7.7.7.7.7.7.8 h h h c H H H H 2 - - - o 7.7.7.7.7.7.7.7.7.7.7.7.7.7.7.7.7.7.7.7.7.7.7.7.7.7.7.7.7.7.7.7.7.7.7.7.7.7.7.",
"7.7.7.7.7.7.7.7.7.7.7.8 h h h v H H H H 2 - - - o 7.7.7.7.7.7.7.7.7.7.7.7.7.7.7.7.7.7.7.7.7.7.7.7.7.7.7.7.7.7.7.7.7.7.7.7.7.7.7.",
"7.7.7.7.7.7.7.7.7.7.7.6 h h h c H H H H 2 - - - o 7.7.7.7.7.7.7.7.7.7.7.7.7.7.7.7.7.7.7.7.7.7.7.7.7.7.7.7.7.7.7.7.7.7.7.7.7.7.7.",
"7.7.7.      . # # # # Z J J J F g g g g X       7.7.7.7.7.7.7.7.7.7.7.7.7.7.7.7.7.7.7.7.7.7.7.7.7.7.7.7.7.7.7.7.7.7.7.7.7.7.7.7.",
"7.7.n - - - ; h h h h I / / / Y - - - - 7.7.7.7.7.7.7.7.7.7.7.7.7.7.7.7.7.7.7.7.7.7.7.7.7.7.7.7.7.7.7.7.7.7.7.7.7.7.7.7.7.7.7.7.",
"7.7.m - - - ; h h h h I / / / Y - - - - 7.7.7.7.7.7.7.7.7.7.7.7.7.7.7.7.7.7.7.7.7.7.7.7.7.7.7.7.7.7.7.7.7.7.7.7.7.7.7.7.7.7.7.7.",
"7.7.n - - - ; h h h h U / / / Y - - - - 7.7.7.7.7.7.7.7.7.7.7.7.7.7.7.7.7.7.7.7.7.7.7.7.7.7.7.7.7.7.7.7.7.7.7.7.7.7.7.7.7.7.7.7.",
"7.7.a - - - ; h h h h U / / / Y - - - - 7.7.7.7.7.7.7.7.7.7.7.7.7.7.7.7.7.7.7.7.7.7.7.7.7.7.7.7.7.7.7.7.7.7.7.7.7.7.7.7.7.7.7.7.",
"7.7.L h h h j / / / / 7 - - - O 7.7.7.7.7.7.7.7.7.7.7.7.7.7.7.7.7.7.7.7.7.7.7.7.7.7.7.7.7.7.7.7.7.7.7.7.7.7.7.7.7.7.7.7.7.7.7.7.",
"7.7.L h h h j / / / / 7 - - - O 7.7.7.7.7.7.7.7.7.7.7.7.7.7.7.7.7.7.7.7.7.7.7.7.7.7.7.7.7.7.7.7.7.7.7.7.7.7.7.7.7.7.7.7.7.7.7.7.",
"7.7.P h h h j / / / / 7 - - - O 7.7.7.7.7.7.7.7.7.7.7.7.7.7.7.7.7.7.7.7.7.7.7.7.7.7.7.7.7.7.7.7.7.7.7.7.7.7.7.7.7.7.7.7.7.7.7.7.",
"7.7.P h h h j / / / / 7 - - - O 7.7.7.7.7.7.7.7.7.7.7.7.7.7.7.7.7.7.7.7.7.7.7.7.7.7.7.7.7.7.7.7.7.7.7.7.7.7.7.7.7.7.7.7.7.7.7.7.",
"7.7.7.# # # & J J J J 5 - - - O 7.7.7.7.7.7.7.7.7.7.7.7.7.7.7.7.7.7.7.7.7.7.7.7.7.7.7.7.7.7.7.7.7.7.7.7.7.7.7.7.7.7.7.7.7.7.7.7.",
"7.7.7.7.7.7.7.h h h h 3 - - - O 7.7.7.7.7.7.7.7.7.7.7.7.7.7.7.7.7.7.7.7.7.7.7.7.7.7.7.7.7.7.7.7.7.7.7.7.7.7.7.7.7.7.7.7.7.7.7.7.",
"7.7.7.7.7.7.7.h h h h 3 - - - O 7.7.7.7.7.7.7.7.7.7.7.7.7.7.7.7.7.7.7.7.7.7.7.7.7.7.7.7.7.7.7.7.7.7.7.7.7.7.7.7.7.7.7.7.7.7.7.7.",
"7.7.7.7.7.7.7.h h h h 3 - - - O 7.7.7.7.7.7.7.7.7.7.7.7.7.7.7.7.7.7.7.7.7.7.7.7.7.7.7.7.7.7.7.7.7.7.7.7.7.7.7.7.7.7.7.7.7.7.7.7.",
"7.7.7.7.7.7.7.z z x z 4 > > : + 7.7.7.7.7.7.7.7.7.7.7.7.7.7.7.7.7.7.7.7.7.7.7.7.7.7.7.7.7.7.7.7.7.7.7.7.7.7.7.7.7.7.7.7.7.7.7.7.",
"7.7.7.7.7.7.7.7.7.7.7.7.7.7.7.7.7.7.7.7.7.7.7.7.7.7.7.7.7.7.7.7.7.7.7.7.7.7.7.7.7.7.7.7.7.7.7.7.7.7.7.7.7.7.7.7.7.7.7.7.7.7.7.7.",
"7.7.7.7.7.7.7.7.7.7.7.7.7.7.7.7.7.7.7.7.7.7.7.7.7.7.7.7.7.7.7.7.7.7.7.7.7.7.7.7.7.7.7.7.7.7.7.7.7.7.7.7.7.7.7.7.7.7.7.7.7.7.7.7.",
"7.7.7.7.7.7.7.7.7.7.7.7.7.7.7.7.7.7.7.7.7.7.7.7.7.7.7.7.7.7.7.7.7.7.7.7.7.7.7.7.7.7.7.7.7.7.7.7.7.7.7.7.7.7.7.7.7.7.7.7.7.7.7.7."
};
