/* XPM */
static char *ea69d27c726f47b2a89ee18bbf00249dnVZtWJ33bl2xklqA[] = {
/* columns rows colors chars-per-pixel */
"64 64 199 2 ",
"   c #635E1E",
".  c #645E24",
"X  c #6E6926",
"o  c #6F692D",
"O  c #726D2D",
"+  c #76712F",
"@  c #7C782F",
"#  c #746E30",
"$  c #7F7B32",
"%  c #807C34",
"&  c #817C38",
"*  c #8F893D",
"=  c #8A8342",
"-  c #92884D",
";  c #918A46",
":  c #979147",
">  c #9B9544",
",  c #95914D",
"<  c #9B954E",
"1  c #9F9C4D",
"2  c #8F8550",
"3  c #958F51",
"4  c #979153",
"5  c #9A9554",
"6  c #9E9954",
"7  c #9F9A58",
"8  c #A29E55",
"9  c #A19D5E",
"0  c #A6A355",
"q  c #A6A25D",
"w  c #AAA65D",
"e  c #AEAB5A",
"r  c #B0A85F",
"t  c #A49E62",
"y  c #A6A163",
"u  c #ABA666",
"i  c #AEAB64",
"p  c #ACA46C",
"a  c #AEAB6C",
"s  c #B0A764",
"d  c #B2AC65",
"f  c #B2A76C",
"g  c #B3AC6B",
"h  c #B8AF6A",
"j  c #B5B265",
"k  c #B9B365",
"l  c #B5B06A",
"z  c #BAB36E",
"x  c #ACA571",
"c  c #AFA874",
"v  c #B0A772",
"b  c #B3AC73",
"n  c #B8AE73",
"m  c #B2A779",
"M  c #B4AC7A",
"N  c #B6B173",
"B  c #BAB374",
"V  c #BCB975",
"C  c #B7B27A",
"Z  c #BBB47C",
"A  c #BEB97A",
"S  c #C1B273",
"D  c #C0B77E",
"F  c #C2BC7B",
"G  c #B7AF80",
"H  c #B8AF84",
"J  c #BCB483",
"K  c #BFB982",
"L  c #BDB58A",
"P  c #BFBC91",
"I  c #C2B684",
"U  c #C3BC83",
"Y  c #C8BF84",
"T  c #C2B68B",
"R  c #C4BB8C",
"E  c #C8BF88",
"W  c #C6BE92",
"Q  c #C9BE93",
"!  c #CDBF9A",
"~  c #C6C281",
"^  c #C9C185",
"/  c #C6C18C",
"(  c #CAC38C",
")  c #CDCA8C",
"_  c #D0C58C",
"`  c #D1CB8C",
"'  c #C6C295",
"]  c #CBC494",
"[  c #CECA93",
"{  c #CCC599",
"}  c #CECA9A",
"|  c #C4C09A",
" . c #D1C694",
".. c #D2CB95",
"X. c #D8CF96",
"o. c #D0C79D",
"O. c #D3CC9B",
"+. c #D9CF9A",
"@. c #D6D296",
"#. c #DAD595",
"$. c #D6D897",
"%. c #D6D19B",
"&. c #DAD39D",
"*. c #DDD99E",
"=. c #E0D79D",
"-. c #E2DB9E",
";. c #CCC5A1",
":. c #CFCAA2",
">. c #CDC8AA",
",. c #D0C6A2",
"<. c #D5CEA2",
"1. c #D9CEA3",
"2. c #D6CDA9",
"3. c #DACFAA",
"4. c #D6D1A1",
"5. c #DBD4A4",
"6. c #DDD9A4",
"7. c #DDD5AB",
"8. c #DED9AA",
"9. c #D6D3AA",
"0. c #DDD5B2",
"q. c #DED9B3",
"w. c #DED4B9",
"e. c #E0D6A6",
"r. c #E1DBA5",
"t. c #E1D6AC",
"y. c #E3DBAC",
"u. c #E8DDAF",
"i. c #E1D6B3",
"p. c #E4DCB3",
"a. c #E8DEB5",
"s. c #E3D7BB",
"d. c #E5DCBA",
"f. c #E9DEBB",
"g. c #E5E1A4",
"h. c #E9E5A6",
"j. c #E6E1AD",
"k. c #EAE4AD",
"l. c #F1EBAF",
"z. c #E6E1B2",
"x. c #EAE3B4",
"c. c #EEE9B3",
"v. c #E6E2BE",
"b. c #E6E1BA",
"n. c #EAE1B9",
"m. c #EEE2BA",
"M. c #EAE7BA",
"N. c #EFE7B9",
"B. c #EFE6BB",
"V. c #EEE5BC",
"C. c #EBE3BB",
"Z. c #EEE9BB",
"A. c #F0E5B5",
"S. c #F1EAB5",
"D. c #F0E6BC",
"F. c #F2EABC",
"G. c #F8EDBF",
"H. c #F6F0B4",
"J. c #F7F1BE",
"K. c #FBF5BC",
"L. c #FFFABE",
"P. c #DED2C3",
"I. c #E4D8C2",
"U. c #EBDEC2",
"Y. c #E7E2C4",
"T. c #EDE3C2",
"R. c #EDE9C5",
"E. c #E7E2CC",
"W. c #EAE4CE",
"Q. c #ECE5CA",
"!. c #F1E6C3",
"~. c #F3EBC3",
"^. c #F8EFC5",
"/. c #F3E6C9",
"(. c #F5ECCA",
"). c #F9EECB",
"_. c #F7F1C3",
"`. c #FAF3C5",
"'. c #FEFAC5",
"]. c #F5F1CD",
"[. c #FCF3CB",
"{. c #FFFBCC",
"}. c #EFE9D1",
"|. c #EBE4D4",
" X c #F5EED1",
".X c #F7F6D7",
"XX c #F5F0D1",
"oX c #FBF4D2",
"OX c #FFFCD4",
"+X c #FDF7DB",
"@X c #FFFEDA",
"#X c #FFFFDD",
"$X c #FFFDDB",
"%X c #FFFDE1",
"&X c #FFFEE2",
"*X c #FFFEEB",
"=X c #FCF6EA",
"-X c #FFF7F0",
";X c #FFFDF2",
/* pixels */
"{ W W T m.a.n.p.p.y.u.y.5.7.e.8.m.a.V.C.e.7.8.4.4.4.4.O.5.4.4.o.6.4.5.5.8.j.j.8.%.5.4.5.y.p.q.p.5.e.5.%.@X.X+X$XJ R ( E y.e.e.8.",
"W Q { L D.y.p.n.a.y.u.u.e.y.u.e.D.m.f.D.y.z.8.8.9.:.4.4.8.5.6.5.x.z.z.j.y.y.y.y.&.4.5.&.p.y.z.p.e.5.4.4.@X.X.XOXH ~ ^ I t.e.5.6.",
"( W W H G.a.a.a.a.p.a.p.t.8.y.7.a.A.m.F.5.8.8.z.4.%.9.$.6.6.8.5.N.z.M.z.8.8.6.6.5.@.5.+.j.6.y.6.7.9.5.5.@X@X$X$XJ ~ / U y.8.6.6.",
"I K L L x.z.z.p.p.y.y.p.p.8.y.e.F.G.G.C.p.e.8.j.4.%.4.O.6.6.6.5.b.d.b.b.j.8.8.y.O.o.<.5.5.6.u.y.t.7.5.8..XOXOXOXJ K ~ U 5.5.5.$.",
"j.y.k.r.e.5.7.5.y.p.y.p.a.a.n.C.J M H G %.4.9.$.%.} } @.$.%.%.<.}.W.W.Y.v.q.v.q.OXoXoXoXq.q.8.e.t.t.7.7.b.T.v.M.*.&.&.@.x.x.z.z.",
"g.r.j.k.4.5.7.5.p.p.t.p.n.C.V.~.M v m c 5.%.$.} } @.$.} %.%.%.} }.|.W.W.Y.Y.v.Y.+X&X+X&X7.p.y.y.t.y.t.t.7.9.9.9.y.r.g.r.G.N.Z.x.",
"k.y.u.p.5.7.7.1.i.p.0.p.C.n.n.!.m m M c 4.@.$.4.%.} $.[ %.%.%.} R.E.Y.Y.b.b.b.q.&X&X$X*X3.7.6.y.t.t.t.y.7.7.9.5.g.r.r.6.F.N.~.M.",
"y.y.u.e.t.1.1.3.i.t.0.p.V.n.n.G.m v p x %.4.%.%.} @.:.[ $.} %.} R.W.R.M.b.b.b.q.$X$X&X$X7.9.y.r.t.u.t.A.1.7.8.8.j.r.j.6.N.C.R.M.",
"a.p.a.p.!.~.~.!.[.[.[.{.7.5.3.7.e.e.t.e.5.6.8.5.r.8.8.8.6.e.8.8.z.q.b.8.x.j.z.z.Y.Y.Y.R.d.V.z.x.e.1.e.t. ...+...*.%.$.:.`.[.[.(.",
"d.a.f.p.!.!.~.!.[.[.`.[.7.1.1.5.e.e.e.e.5.5.9.5.8.8.8.8.8.8.y.y.8.8.8.8.j.x.x.z.v.v.d.T.d.V.C.x.+.1.e.e.{ ] .. .} O.4.} '.].[.oX",
"p.d.f.p.!.!.!.!.).[.[.[.t.5.1.5.e.e.t.e.5.5.5.5.8.j.p.j.y.y.y.y.j.g.j.j.y.z.n.a.C.C.U.T.b.T.T.V.e.5.e.e. . ...] 4.4.} ' {.'.).).",
"a.f.a.a.~.~.~.~.OX{.[.[.y.5.1.4.e.5.5.4.8.6.9.5.8.8.8.8.p.8.y.y.h.h.h.6.S.z.M.n.d.b.d.b.v.T.V.V.O.1.+.1.] _ _ ( 4.:.4.5.`.'.[.[.",
"o. . .o.5.7.7.3.1.7.5.y.7.e.u.u.+.O.+.+.8.j.j.q.4.%.4.:.p.8.p.k., 1 8 5 *.*.5.5.5.6.6.6.j.n.b.z.C.F.F.~.A.A.A.A.8.8.9.6.F D I I ",
"] ] ] ] 1.O.O.O.5.7.5.5.t.y.y.u.....o.o.j.j.z.z.:.} } } p.y.z.k.* > : = r.5.O.*.&.*.&.#.g.j.z.b.M.C.f.!.a.A.u.A.q.8.8.y.u a f f ",
"` ] [ ( &.&.&.1.4.5.4.5.y.u.y.j... .} [ j.j.j.j.%.} } [ y.8.u.k.* > 6 - e.e.t.e.e.r.*.&.c.z.z.b.R.~././.D.D.c.N.q.8.8.g.h z S S ",
"( ( ( ( +.&.&.&.1.5.5.5.e.r.y.u. .] ] ' z.j.j.q.[ } } ' p.5.p.z.= ; - 2 5.e.7.5.r.r.*.&.M.z.d.b.b.T.T.!.D.S.c.F.7.q.8.5.g f h S ",
"C.x.M.M.6.*.&.%.V.V.V.C.&.@.@.%.V.T.T.T.m.V.C.C.x.x.x.m.m.V.T.!.O.1.4.4.} ..@.[ @.@.....C.n.f.Y.w.0.0.7.E E ^ I ~.R.R.R.R ( ( _ ",
"z.M.M.M.5.&.&.4.V.C.T.F.&.@.%.%.C.T.T.T.T.T.V.F.p.a.n.a.n.C.V./.,.<.1.O...[ ) ) @.%.5.O.F.d.f.T.2.2.4.&.N B N b `.~.R.].{ ]  ._ ",
"z.k.M.x.5.5.&.1.R.d.v.Z.O.4.4.} n.V.T.f.C.f.d.n.z.n.n.m.C.T.T./.{ ........[ [ [ ..} O.] !.C.b.C.2.7.5.r.N S N C `.R.R._.W ] _ _ ",
"Z.c.c.x.r.5.4.<.Z.R.].Y.7.;.:.4.V.C.n.n.!.!.T.!.f.a.n.n.C.C.T.!... .[ / [ ) / / $.4.O.5.x.F.J.Z.7.7.&.+.A B b b '.J.J._.]  .X.` ",
"{ ' } ..6.6.j.j.[ / ' | $X*X*X&X7.+.<.5.V.V.C.T.p.p.p.p.p.p.d.d.&.&.5.e.G.J._._.q.8.8.j.K ~ U U { } ..+...X.@...j.6.8.j.Z K U U ",
":.} } [ y.j.k.j.) ) [ P *X=X;X*X<...{  .F.!.!.!.i.i.t.t.t.7.i.7.5.&.5.4.~.~.~.R.8.8.8.j.a A A A @.} O...+.+.&.} g.*.6.j.C K E I ",
"<.} } [ y.j.j.j.) ) [ P *X*X;X*X<...`  .F.m.C.F.p.p.p.p.i.t.p.7.5.5.5.4.].[.[.[.p.8.6.k.b A V B  .[  .....<.O...j.6.6.j.Z I R E ",
"4.%...X.z.z.z.j...) [ ' $X*X;X&X*.#.@.@.G.F.F.~.y.i.y.y.y.y.8.y.5.5.5.&._._._.[.9.p.y.6.x b a g ) [ ]  .{ <.o...8.$.*.y.C M I I ",
"N b g b u.s.f.s.Q E I T p.w.q.q.u q u u h.j.z.n.4.5.4.5.O.4.O.O.&.&.*.@.5.5.4.4.C.C.F.n.OXOXOXOX5.y.7.y.V.V.n.M.q.j.8.j.6.6.8.8.",
"N B B v u.i.s.f.Q Q R T q.8.8.j.a i u y c.j.k.z.5.5.5.6...O.O...%.@.@.%.%.5.4.%.x.x.V.n.OX$X$XOX8.j.e.t.C.C.d.b.z.8.j.z.9.9.7.8.",
"n B n t m.f.f.U.! Q T T e.y.y.r.a l l u S.j.j.x.<.*.%.*.....O.@.6.4.%.5.&.5.5.&.F.x.C.n.OXoX+X$X9.6.7.8.C.C.b.T.q.8.8.q.1.7.7.7.",
"f f v m t.t.a.a.Q T T E r.y.g.g.a u y u k.c.x.k.5.5.4...} } ] { %.} 5.8.4.6.5.5.x.c.C.D.OX$X$X$X8.8.8.p.d.f.d.T.q.q.q.q.2.3.0.3.",
"u.u.j.y.u.6.e.5.m.m.D.p.y.4.5.6.g.g.h.r.%.] { } x.x.x.c.'.{.OX{.p.p.z.p.o.] ] W e.5.4.O.%.} } } j.j.8.q.a.p.s.q.XXXX].].b.T.f.V.",
"r.e.8.j.&.&.&.+.a.m.D.n.e.5.8.6.r.*.6.j...4.O.} x.c.k.x.'.'.'.[.9.8.p.z.] {  .o.4.&.5.+.} ..} %.j.j.y.z.i.p.q.w..XXXXXXXd.b.f.f.",
"6.8.8.8.*.*.*.4.!.f.U.T.e.6.6.4.6.6.j.p.} o.O.] x.c.j.z.'.[.'.'.8.8.y.z.W ] { ] 5.7.5.5.$.O.} ..j.8.j.p.y.p.p.s. X X XXXU.C.V.m.",
"6.r.8.5.7.4.<.7.U.f.U.f.7.5.5.5.8.j.8.8.O.<.O.} M.C.C.n.[.OXoXOXj.g.r.u.R { Q W e.6.5.5.%.4.%.} z.j.j.z.p.a.p.p.oX.XXXXXv.z.m.n.",
"k.u.z.n.i.d.d.0./.!.!.~.a.D.f.m.a.i.p.a.O.+.&.O.T.T.T.U.p.i.s.p...%...} @X$X$XOXa i l i k.y.e.t.+.&.+.4.3.i.3.3.i.i.0.7.5.6.5.8.",
"j.j.z.z.p.i.d.w.!.~.!.~.f.U.m.U.d.d.d.a.O.X.X.O.f.U.T.f.i.i.i.p. .@.%.{ $X+X$XOXa j j i g.r.u.u.+.&.+.<.3.t.t.3.t.t.t.e.6.6.5.8.",
"y.j.z.u.p.8.p.y.D.D.V.!.f.V.m.f.i.i.p.p.<.+.4.O.D.!.!.V.p.i.i.p.4.O.O.{ &X$X&XOXa i e i h.r.r.r.+.&.&.&.i.i.t.t.e.t.t.t.6.6.5.r.",
"c.c.k.j.k.p.e.t.~.~.!.(.f.!.D.f.n.p.a.y.4.o.O. .C.V.C.m.a.y.y.u.<. .O.:.OX@X@XOXu y w u e.y.r.u.O.&.X.X.3.t.3.3.t.u.i.e.y.6.6.$.",
"l C B V @.&.5.7.f.f.s.f.0.t.7.e.4.5.7.e.7.p.p.p. . .}  .O.O.+.O.6.e.6.%.y.7.7.9.r.g.g.6.[.G.~.J.t.y.-.r.p.f.a.s.o.+.1.1.x.S.S.S.",
"V V z C &.6.t.7.f.f.s.U.7.t.e.e.e.e.e.7.p.p.i.7. ...[ ..O.+.O...6.r.6.r.5.8.8.y.6.r.r.6.`.~.~.].7.e.-.&.u.s.s.f.3.&.1.4.F.F.c.l.",
"N V N N *.6.5.7.a.n.V.C.e.e.=.e.&.*.6.5.p.i.s.s. .......O.4.%...r.6.%.*.6.y.6.5.e.8.7.5.[.~.].Z.7.e.*.-.s.I.I.s.+.X.O.<.F.F.S.N.",
"N V b b 6.7.7.y.F.~.G.F.t.u.e.e.r.-.r.5.p.0.s.p. .[  ...O.1.O. .6.5.6.5.5.%.5.5.5.5.8.7._.~._.'.5.6.*.5.s.P.P.s.+.&.%.%._.F.N.F.",
"k.x.z.M.p.y.j.c.# o o . u.n.U./.( F Z K !.(. X/.7.5.r.e.7.e.7.7.[.).).(.`.`.`._.N.N.N.c.} ..} } 9.6.*.4.*X-X*X*XO.@.$.5.9.8.9.8.",
"z.b.d.b.a.y.j.l.$ @ & O x.V.U.U.R U U Z ~.~./.!.t.5.5.e.0.p.7.3.(.(.R.(.~.~.J.J.z.z.M.S.[ $.$.$.6.6.*.:.*X-X*X*X[ @.4.$.8.8.9.q.",
"j.z.p.d.s.p.u.c.* @ % + h.n.Q.U.R U U C ^.V.~.(.t.5.5.7.7.i.7.7.].(.(.(.~._._.J.Z.z.z.S.[ $.$.[ $.6.g.O.*X=X*X$X} $.$.$.j.q.8.q.",
"c.x.b.d.Y.p.p.z.O X X   S.n./.!.] U Z K G.^.^.!.t.7.7.7.7.7.7.5._.(.].(._._.J.`.x.C.Z.c.} [ } :.$.6.6.5.*X*X*X&X$.$.4.6.r.j.j.z.",
"/ ^ ' { s.d.T.T._.K.S.K.( W T L e.u.z.y.4.O.+.t.p.t.p.i.t.5.e.5.6.8.8.q.8.8.6.e.6.4.4.4.{.OXOXOX:.} ) / 2.>.;.| [ .. .X.y a p x ",
"` ) ( ] b.f.U.C.n.x.l.A. .W T R M.u.y.y.&.5.&.O.t.p.p.p.5.5.5.5.r.g.j.q.8.6.6.8.<.9.5.[ OX`.OX#X} @.[ $.} 2.} 4.} O.4.e.y a N N ",
") ~ / / z.n.f.f.V.F.x.x.] R T T y.y.a.p.&.#.&.&.t.i.p.y.&.&.=.&.k.j.q.q.p.y.y.y.5.7.5.[ {.'.OXOX} [ [ $...@.%.@.%.4.,.e.u N h g ",
"/ / / R n.z.n.n.x.A.A.F.W J T H y.p.a.e.e.&.&.e.p.p.p.k.r.-.-.=.g.k.z.z.0.8.8.e.5.*.*.%.{.'.OX@Xo.} [ [ ........} 1.1.+.p s i d ",
"`.~.~._.z.8.8.8.O.} 4.O.R.].].[.a.y.p.x...4.O.} b.b.n.k.f s r r F A I Z y.t.p.y.&.&.%.../ ] ' W z.p.a.p.C.n.x.F. .<.1.5.e.r.r.r.",
"F.!.!.~.p.8.j.j.O.%.4.[ J._.!.~.z.y.j.x.} O.<.2.d.p.z.S.p g k d Y U F D y.e.i.y.&.*.*.*.} ..[ [ a.p.p.0.C.n.C.C.o.o. .<.7.8.e.e.",
"~.~.(.F.p.8.8.z.:.4.8.} J.F.S.`.u.u.k.p.%.%.%.4.A.z.z.S.v n n f Y D F Z y.e.y.e.+.&.%.*.[  .} [ a.p.p.p.n.f.f.a.O.O.,.O.5.t.e.5.",
"!.!.F.R.b.p.q.z.4.%.O.4.K.L.L.L.S.x.M.k.4.@...O.k.x.x.a.m t p x I I D A r.e.t.y.<.&.4.5.{ ..) [ e.0.i.p.a.n.V.V.{ o.o.1.<.5.5.7.",
"p.p.p.p.C.d.v.M.{ } ..] 7 , , 4  .{ ......@.&.%.%.O. .9.`.OX[.[.f.n.p.y.[.[.[.oXm.V.V.T.p.b.u.y.F.V.C.n.5.1.1.<.V.F.D.C.7.1.2.<.",
"y.t.p.q.C.C.v.T.:.] } @.y 6 0 , 4.&.+.O.*.@.@.....&.4.{ [.~.~.[.p.f.p.y.^.^.(.).d.n.f.T.s.f.z.j.n.d.n.p.2.5.7.3.n.n.m.C.<.1.1.1.",
"a.a.p.p.T.d.b.V.} { ..*.y 6 6 4 O.1.4...%.@.*.@.@.5.O.{ `.(.~.).i.p.y.y.).).(.).n.n.f.T.p.f.a.p.n.n.m.m.1.7.1.7.m.C.m.C.2.3.3.2.",
"i.p.p.w.V.b.C.!.{ } [ [ y 4 6 , O.<.1.o.4. .O.%.O.%.} <.^.[.[.[.a.n.u.a.oXoX).oXF.F.A.F.p.n.u.y.c.a.z.m.5.7.7.1.C.C.f.V.<.3.2.2.",
"d.p.a.f.2.7.7.5.4.8.6.r.&.&.&.&.j.y.a.z.<.<.4.<.y.8.j.y.j.z.z.z.M K A C y.7.y.n.4 7 7 5 r.5.+.+.x.z.x.F.L R W R o.O.{ { V.f.d.d.",
"p.d.a.a.2.4.4.5.5.6.5.e.@.+.@.+.z.q.q.a.2.<.,.<.z.y.8.y.z.x.z.j.A F V C z.p.y.c.6 0 0 6 g.*.&.&.A.a.n.x.R W ' T o.1.1.o.n.p.p.a.",
"s.a.a.d.7.5.5.6.6.6.&.r.O. .O.{ q.8.q.b.<.2.2.1.8.u.r.y.8.j.j.k.V V A Z x.p.a.c.q 0 e 8 g.&.=.4.m.n.C.D.R R ] ] &.O.<.{ m.p.a.p.",
"m.f.d.p.7.7.4.4.4.5.5.r.%.+.5. .q.8.0.q.| :.<.} y.j.y.6.z.j.y.x.B V C Z y.i.i.u.6 8 w q #.&.5.5.x.C.n.n.R R R R o. .O.<.u.p.a.p.",
"1.1.1.3.a.n.C.N.5.5.5.&.I N b p OX@X@X@Xb.z.j.x.U A K L S.F.~.~.6.r.6.5.[.).).[.&.#.#.` A.u.i.i.p.t.t.n.8.z.k.k.5.e.e.5.R T L R ",
"e.1.+.3.b.n.C.n.5.5.r.r.U B l u OX$X@X@Xq.8.8.k.^ U U A _.!.~.~.6.e.6.7.(././.[. .X...X.t.a.i.u.p.p.t.p.7.p.e.e.&.e.r.y.R ] R } ",
"&.1.1.1.f.T.T.b.7.5.r.-.F h j y OX&X@X@X8.8.g.k.F ~ ~ Z G.f.Q.(.9.6.*.5.~.(.~.[.o. . .+.i.a.p.i.p.d.p.p.y.e.e.g.r.&.&.r.( { ] ( ",
"&.+.=.1.C.f.C.C.0.5.&.=.F k k q OX&X+X@Xq.j.*.h.~ ~ A J ^.!.Q. X7.5.5.6.F.~.(.~. . .+.o.a.i.p.t.p.a.7.y.y.u.y.r.r.&.&.r.R R ] ( "
};
